<?xml version="1.0" encoding="UTF-8" standalone="no"?>
<!-- Created with Inkscape (http://www.inkscape.org/) -->

<svg
   width="210mm"
   height="297mm"
   viewBox="0 0 210 297"
   version="1.1"
   id="svg1"
   inkscape:version="1.4 (e7c3feb1, 2024-10-09)"
   sodipodi:docname="lhsJTua_2Check2.svg"
   xmlns:inkscape="http://www.inkscape.org/namespaces/inkscape"
   xmlns:sodipodi="http://sodipodi.sourceforge.net/DTD/sodipodi-0.dtd"
   xmlns="http://www.w3.org/2000/svg"
   xmlns:svg="http://www.w3.org/2000/svg"
   xmlns:ns2="http://www.iki.fi/pav/software/textext/">
  <sodipodi:namedview
     id="namedview1"
     pagecolor="#ffffff"
     bordercolor="#000000"
     borderopacity="0.25"
     inkscape:showpageshadow="2"
     inkscape:pageopacity="0.0"
     inkscape:pagecheckerboard="0"
     inkscape:deskcolor="#d1d1d1"
     inkscape:document-units="mm"
     inkscape:zoom="4.5329405"
     inkscape:cx="288.99563"
     inkscape:cy="697.78106"
     inkscape:window-width="1192"
     inkscape:window-height="771"
     inkscape:window-x="1328"
     inkscape:window-y="25"
     inkscape:window-maximized="0"
     inkscape:current-layer="layer1" />
  <defs
     id="defs1">
    <inkscape:path-effect
       effect="bspline"
       id="path-effect4"
       is_visible="true"
       lpeversion="1.3"
       weight="33.333333"
       steps="2"
       helper_size="0"
       apply_no_weight="true"
       apply_with_weight="true"
       only_selected="false"
       uniform="false" />
    <inkscape:path-effect
       effect="bspline"
       id="path-effect22"
       is_visible="true"
       lpeversion="1.3"
       weight="33.333333"
       steps="2"
       helper_size="0"
       apply_no_weight="true"
       apply_with_weight="true"
       only_selected="false"
       uniform="false" />
    <inkscape:path-effect
       effect="bspline"
       id="path-effect12"
       is_visible="true"
       lpeversion="1.3"
       weight="33.333333"
       steps="2"
       helper_size="0"
       apply_no_weight="true"
       apply_with_weight="true"
       only_selected="false"
       uniform="false" />
    <inkscape:path-effect
       effect="bspline"
       id="path-effect11"
       is_visible="true"
       lpeversion="1.3"
       weight="33.333333"
       steps="2"
       helper_size="0"
       apply_no_weight="true"
       apply_with_weight="true"
       only_selected="false"
       uniform="false" />
    <inkscape:path-effect
       effect="bspline"
       id="path-effect9"
       is_visible="true"
       lpeversion="1.3"
       weight="33.333333"
       steps="2"
       helper_size="0"
       apply_no_weight="true"
       apply_with_weight="true"
       only_selected="false"
       uniform="false" />
    <inkscape:path-effect
       effect="bspline"
       id="path-effect7"
       is_visible="true"
       lpeversion="1.3"
       weight="33.333333"
       steps="2"
       helper_size="0"
       apply_no_weight="true"
       apply_with_weight="true"
       only_selected="false"
       uniform="false" />
    <inkscape:path-effect
       effect="bspline"
       id="path-effect3"
       is_visible="true"
       lpeversion="1.3"
       weight="33.333333"
       steps="2"
       helper_size="0"
       apply_no_weight="true"
       apply_with_weight="true"
       only_selected="false"
       uniform="false" />
    <inkscape:path-effect
       effect="bspline"
       id="path-effect46"
       is_visible="true"
       lpeversion="1.3"
       weight="33.333333"
       steps="2"
       helper_size="0"
       apply_no_weight="true"
       apply_with_weight="true"
       only_selected="false"
       uniform="false" />
    <inkscape:path-effect
       effect="bspline"
       id="path-effect14"
       is_visible="true"
       lpeversion="1.3"
       weight="33.333333"
       steps="2"
       helper_size="0"
       apply_no_weight="true"
       apply_with_weight="true"
       only_selected="false"
       uniform="false" />
    <inkscape:path-effect
       effect="bspline"
       id="path-effect18"
       is_visible="true"
       lpeversion="1.3"
       weight="33.333333"
       steps="2"
       helper_size="0"
       apply_no_weight="true"
       apply_with_weight="true"
       only_selected="false"
       uniform="false" />
    <inkscape:path-effect
       effect="bspline"
       id="path-effect20"
       is_visible="true"
       lpeversion="1.3"
       weight="33.333333"
       steps="2"
       helper_size="0"
       apply_no_weight="true"
       apply_with_weight="true"
       only_selected="false"
       uniform="false" />
    <inkscape:path-effect
       effect="bspline"
       id="path-effect24"
       is_visible="true"
       lpeversion="1.3"
       weight="33.333333"
       steps="2"
       helper_size="0"
       apply_no_weight="true"
       apply_with_weight="true"
       only_selected="false"
       uniform="false" />
  </defs>
  <g
     inkscape:label="Layer 1"
     inkscape:groupmode="layer"
     id="layer1">
    <path
       style="fill:#00d400;stroke:#00d400;stroke-width:0.0499999;stroke-dasharray:none;stroke-opacity:1"
       d="m 74.373419,192.54232 v 3.18879"
       id="path22"
       sodipodi:nodetypes="cc" />
    <path
       style="fill:#00d400;stroke:#00d400;stroke-width:0.0499999;stroke-dasharray:none;stroke-opacity:1"
       d="m 71.727583,192.54232 v 3.18879"
       id="path32"
       sodipodi:nodetypes="cc" />
    <path
       style="fill:none;stroke:#00d400;stroke-width:0.0499999;stroke-dasharray:none;stroke-dashoffset:0;stroke-opacity:1"
       d="m 37.15921,69.425179 c 0,0.367765 0,0.735525 0.440982,0.919412 0.440982,0.183887 1.322893,0.183887 1.763874,1e-6 0.44098,-0.183887 0.44098,-0.551644 0.44098,-0.919413"
       id="path45"
       sodipodi:nodetypes="cccc"
       transform="rotate(180,55.766314,130.98375)"
       inkscape:original-d="m 37.15921,69.425179 c 0,0.367765 0,0.735525 0,1.103299 0.881964,0 1.763875,0 2.645836,0 0,-0.367773 0,-0.73553 0,-1.103299"
       inkscape:path-effect="#path-effect46" />
    <path
       style="fill:none;stroke:#00d400;stroke-width:0.0499999;stroke-dasharray:none;stroke-dashoffset:0;stroke-opacity:1"
       d="m 72.909003,191.29287 0.25743,0.19912 -0.25743,0.19912"
       id="path52"
       sodipodi:nodetypes="ccc" />
    <path
       style="fill:none;stroke:#0000ff;stroke-width:0.051"
       d="m 95.733479,74.551943 c 0,-1.797893 0,-3.595748 0.352785,-4.494714 0.352786,-0.898966 1.058313,-0.898966 1.411098,-1.553506 0.352785,-0.65454 0.352785,-1.963567 0.352785,-3.272623"
       id="path13"
       inkscape:path-effect="#path-effect14"
       inkscape:original-d="m 95.733479,74.551943 c 0,-1.797893 0,-3.595748 0,-5.39368 0.705571,0 1.411098,0 2.116668,0 0,-1.30908 0,-2.618107 0,-3.927163"
       sodipodi:nodetypes="cccc"
       transform="translate(-26.122564,121.17917)" />
    <path
       style="fill:none;stroke:#0000ff;stroke-width:0.051"
       d="m 95.733479,74.551943 c 0,-1.797893 0,-3.595748 0.352785,-4.494714 0.352786,-0.898966 1.058313,-0.898966 1.411098,-1.553506 0.352785,-0.65454 0.352785,-1.963567 0.352785,-3.272623"
       id="path17"
       inkscape:path-effect="#path-effect18"
       inkscape:original-d="m 95.733479,74.551943 c 0,-1.797893 0,-3.595748 0,-5.39368 0.705571,0 1.411098,0 2.116668,0 0,-1.30908 0,-2.618107 0,-3.927163"
       sodipodi:nodetypes="cccc"
       transform="matrix(-1,0,0,1,172.22357,121.17917)" />
    <path
       style="fill:none;stroke:#00d400;stroke-width:0.051"
       d="m 95.733479,74.551943 c 0,-1.797893 0,-3.595748 0.352785,-4.494714 0.352786,-0.898966 1.058313,-0.898966 1.411098,-1.79793 0.352785,-0.898964 0.352785,-2.69682 0.352785,-4.494716"
       id="path18"
       inkscape:path-effect="#path-effect20"
       inkscape:original-d="m 95.733479,74.551943 c 0,-1.797893 0,-3.595748 0,-5.39368 0.705571,0 1.411098,0 2.116668,0 0,-1.797928 0,-3.595784 0,-5.39368"
       sodipodi:nodetypes="cccc"
       transform="translate(-28.239231,121.17917)" />
    <path
       style="fill:none;stroke:#00d400;stroke-width:0.051"
       d="m 95.733479,74.551943 c 0,-0.034 0,-0.06801 0,-0.173208 0,-0.105198 0,-0.281579 0,-0.651367 0,-0.369788 0,-0.932946 0,-1.496118"
       id="path23"
       inkscape:path-effect="#path-effect24"
       inkscape:original-d="m 95.733479,74.551943 c 0,-0.034 0,-0.06801 0,-0.102013 0,-0.176393 0,-0.352774 0,-0.529167 0,-0.563183 0,-1.126341 0,-1.689513"
       sodipodi:nodetypes="cccc"
       transform="matrix(-1,0,0,1,174.34023,121.17917)" />
    <path
       style="fill:#00d400;stroke:#00d400;stroke-width:0.0499999;stroke-dasharray:none;stroke-opacity:1"
       d="m 80.723423,193.41042 v 2.32069"
       id="path4"
       sodipodi:nodetypes="cc" />
    <path
       style="fill:#00d400;stroke:#00d400;stroke-width:0.0499999;stroke-dasharray:none;stroke-opacity:1"
       d="m 82.840091,188.30899 v 7.42212"
       id="path5"
       sodipodi:nodetypes="cc" />
    <path
       style="fill:#00d400;stroke:#00d400;stroke-width:0.0499999;stroke-dasharray:none;stroke-opacity:1"
       d="m 86.54426,176.58032 v 19.15079"
       id="path6"
       sodipodi:nodetypes="cc" />
    <path
       style="fill:#ffffff;stroke:#00d400;stroke-width:0.051"
       d="m 80.194251,197.64375 c 0,-0.63914 0,-1.27826 0.352786,-1.59783 0.352786,-0.31958 1.058326,-0.31958 1.411107,-1e-5 0.35278,0.31957 0.35278,0.95871 0.35278,1.59784"
       id="path7"
       inkscape:path-effect="#path-effect7"
       inkscape:original-d="m 80.194251,197.64375 c 0,-0.63914 0,-1.27826 0,-1.91741 0.705572,0 1.411112,0 2.116673,0 0,0.63914 0,1.27828 0,1.91741"
       sodipodi:nodetypes="cccc"
       transform="translate(-1.5875,-4.2333335)" />
    <path
       style="fill:none;stroke:#00d400;stroke-width:0.0499999;stroke-dasharray:none;stroke-dashoffset:0;stroke-opacity:1"
       d="m 79.513516,191.37288 0.25743,0.19912 -0.25743,0.19912"
       id="path8"
       sodipodi:nodetypes="ccc" />
    <path
       style="fill:#ffffff;stroke:#00d400;stroke-width:0.051"
       d="m 69.610916,184.94375 c 0,-2.9642 0,-5.9284 0,-8.8926"
       id="path9"
       inkscape:path-effect="#path-effect9"
       inkscape:original-d="m 69.610916,184.94375 c 0,-2.9642 0,-5.9284 0,-8.8926"
       sodipodi:nodetypes="cc" />
    <path
       style="fill:#00d400;stroke:#00d400;stroke-width:0.0499999;stroke-dasharray:none;stroke-opacity:1"
       d="m 73.315085,176.05115 v 3.18879"
       id="path10"
       sodipodi:nodetypes="cc" />
    <path
       style="fill:none;stroke:#00d400;stroke-width:0.051"
       d="m 73.315085,179.23994 c 0,1.46398 0,2.92793 1.587533,3.66866 1.587533,0.74072 4.762402,0.75816 6.349938,1.62588 1.587535,0.86773 1.587535,2.58569 1.587535,4.30367"
       id="path11"
       inkscape:path-effect="#path-effect11"
       inkscape:original-d="m 73.315085,179.23994 c 0,1.46398 0,2.92793 0,4.39195 3.175066,0.0174 6.349935,0.0349 9.525006,0.0523 0,1.71802 0,3.43598 0,5.15396"
       sodipodi:nodetypes="cccc" />
    <rect
       style="fill:#ffffff;stroke:#ffffff;stroke-width:0.051"
       id="rect22"
       width="5.790874"
       height="2.9151001"
       x="74.985756"
       y="181.99652" />
    <path
       style="fill:none;stroke:#0000ff;stroke-width:0.051"
       d="m 71.727583,186.41027 c 0,-0.89447 0,-1.78894 1.675737,-2.43744 1.675738,-0.6485 5.026942,-1.05097 6.70269,-1.7988 1.675747,-0.74784 1.675747,-1.84096 1.675747,-2.93409"
       id="path12"
       sodipodi:nodetypes="cccc"
       inkscape:original-d="m 71.727583,186.41027 c 0,-0.89447 0,-1.78894 0,-2.68344 3.351475,-0.4025 6.702679,-0.80497 10.054174,-1.20747 0,-1.09317 0,-2.18629 0,-3.27942"
       inkscape:path-effect="#path-effect12" />
    <path
       style="fill:none;stroke:#0000ff;stroke-width:0.0499999;stroke-dasharray:none;stroke-opacity:1"
       d="m 81.781757,176.05115 v 3.18879"
       id="path14"
       sodipodi:nodetypes="cc" />
    <path
       style="fill:#00d400;stroke:#00d400;stroke-width:0.0499999;stroke-dasharray:none;stroke-opacity:1"
       d="m 76.490085,179.11594 v -3.18879"
       id="path15"
       sodipodi:nodetypes="cc" />
    <path
       style="fill:#00d400;stroke:#00d400;stroke-width:0.0499999;stroke-dasharray:none;stroke-opacity:1"
       d="m 79.135915,179.11594 v -3.18879"
       id="path16"
       sodipodi:nodetypes="cc" />
    <path
       style="fill:none;stroke:#0000ff;stroke-width:0.051"
       d="m 72.256756,186.41027 c 0.0847,-0.62618 0.169402,-1.25235 1.756942,-1.76954 1.587539,-0.51719 4.677677,-0.92533 6.222868,-1.80732 1.545191,-0.88199 1.545191,-2.23772 1.545191,-3.59347"
       id="path2"
       sodipodi:nodetypes="cccc"
       inkscape:original-d="m 72.256756,186.41027 c 0.0847,-0.62618 0.169402,-1.25235 0.254106,-1.87855 3.090375,-0.40818 6.180513,-0.81632 9.270895,-1.2245 0,-1.3558 0,-2.71153 0,-4.06728"
       inkscape:path-effect="#path-effect4"
       transform="translate(2.1166667)" />
    <path
       style="fill:none;stroke:#00d400;stroke-width:0.0499999;stroke-dasharray:none;stroke-dashoffset:0;stroke-opacity:1"
       d="m 37.15921,65.191846 c 0,0.367765 0,0.735525 0.440982,0.919412 0.440982,0.183887 1.322893,0.183887 1.763874,10e-7 0.44098,-0.183887 0.44098,-0.551644 0.44098,-0.919413"
       id="path19"
       sodipodi:nodetypes="cccc"
       transform="translate(39.330875,113.9237)"
       inkscape:original-d="m 37.15921,65.191846 c 0,0.367765 0,0.735525 0,1.103299 0.881964,0 1.763875,0 2.645836,0 0,-0.367773 0,-0.73553 0,-1.103299"
       inkscape:path-effect="#path-effect22" />
    <path
       style="fill:none;stroke:#00d400;stroke-width:0.0499999;stroke-dasharray:none;stroke-dashoffset:0;stroke-opacity:1"
       d="m 77.954495,180.36536 -0.25743,-0.19912 0.25743,-0.19912"
       id="path21"
       sodipodi:nodetypes="ccc" />
    <rect
       style="display:inline;fill:#ffffff;stroke:#0000ff;stroke-width:0.0514208;stroke-dasharray:none;stroke-opacity:1"
       id="rect1-9"
       width="1.9296052"
       height="1.0258979"
       x="80.775978"
       y="178.52274" />
    <path
       style="fill:none;stroke:#0000ff;stroke-width:0.0499999;stroke-dasharray:none;stroke-opacity:1"
       d="m 83.898425,176.05115 v 3.18879"
       id="path1"
       sodipodi:nodetypes="cc" />
    <rect
       style="display:inline;fill:#ffffff;stroke:#0000ff;stroke-width:0.0514208;stroke-dasharray:none;stroke-opacity:1"
       id="rect1"
       width="1.9296052"
       height="1.0258979"
       x="82.892647"
       y="178.51244" />
    <rect
       style="display:inline;fill:#ffffff;stroke:#0000ff;stroke-width:0.062847;stroke-dasharray:none;stroke-opacity:1"
       id="rect4"
       width="2.9149044"
       height="1.0144717"
       x="70.280907"
       y="186.99501" />
    <rect
       style="display:inline;fill:#ffffff;stroke:#0000ff;stroke-width:0.0634087;stroke-dasharray:none;stroke-opacity:1"
       id="rect5"
       width="2.9688854"
       height="1.0139099"
       x="73.406563"
       y="186.98499" />
    <path
       style="fill:none;stroke:#00d400;stroke-width:0.0499999;stroke-dasharray:none;stroke-dashoffset:0;stroke-opacity:1"
       d="m 69.810036,185.00045 -0.19912,0.25743 -0.19912,-0.25743"
       id="path20"
       sodipodi:nodetypes="ccc" />
    <g
       transform="matrix(0.0705555,0,0,0.0705555,70.479537,187.12332)"
       ns2:version="1.10.2"
       ns2:texconverter="pdflatex"
       ns2:pdfconverter="inkscape"
       ns2:text="$(\\eta_{h^{-1}})^{-1}$"
       ns2:preamble="/Users/abigailwatkins/Library/Application Support/org.inkscape.Inkscape/config/inkscape/extensions/textext/default_packages.tex"
       ns2:scale="0.2"
       ns2:alignment="middle center"
       ns2:stroke-to-path="0"
       ns2:inkscapeversion="1.4"
       ns2:jacobian_sqrt="0.0705555"
       id="g17">
      <defs
         id="id-b3ef0388-743b-4736-8b07-2f96b44cc95c">
        <g
           id="id-f384982a-5f3c-4e68-b821-6043bf76c7a6">
          <g
             id="id-ea5d761d-b284-4356-a2de-d42984cb9b77">
            <path
               d="m 3.296875,2.390625 c 0,-0.03125 0,-0.046875 -0.171875,-0.21875 C 1.890625,0.921875 1.5625,-0.96875 1.5625,-2.5 c 0,-1.734375 0.375,-3.46875 1.609375,-4.703125 0.125,-0.125 0.125,-0.140625 0.125,-0.171875 0,-0.078125 -0.03125,-0.109375 -0.09375,-0.109375 -0.109375,0 -1,0.6875 -1.59375,1.953125 -0.5,1.09375 -0.625,2.203125 -0.625,3.03125 0,0.78125 0.109375,1.984375 0.65625,3.125 C 2.25,1.84375 3.09375,2.5 3.203125,2.5 c 0.0625,0 0.09375,-0.03125 0.09375,-0.109375 z m 0,0"
               id="id-6202c571-a82e-4252-b137-4d7de8ae40aa" />
          </g>
          <g
             id="id-8c8baac3-9a71-4a62-8fac-bbf7f6a39136">
            <path
               d="m 2.875,-2.5 c 0,-0.765625 -0.109375,-1.96875 -0.65625,-3.109375 -0.59375,-1.21875 -1.453125,-1.875 -1.546875,-1.875 -0.0625,0 -0.109375,0.046875 -0.109375,0.109375 0,0.03125 0,0.046875 0.1875,0.234375 0.984375,0.984375 1.546875,2.5625 1.546875,4.640625 0,1.71875 -0.359375,3.46875 -1.59375,4.71875 C 0.5625,2.34375 0.5625,2.359375 0.5625,2.390625 0.5625,2.453125 0.609375,2.5 0.671875,2.5 0.765625,2.5 1.671875,1.8125 2.25,0.546875 2.765625,-0.546875 2.875,-1.65625 2.875,-2.5 Z m 0,0"
               id="id-df9cccbf-0cb7-4205-98ba-cec7f97c8a41" />
          </g>
          <g
             id="id-3d097512-d4e4-4fce-ab05-9200a9e391a4">
            <path
               d="M 4.859375,-2.765625 C 4.921875,-2.9375 4.9375,-3.078125 4.9375,-3.34375 c 0,-0.640625 -0.390625,-1.0625 -1.140625,-1.0625 -0.78125,0 -1.296875,0.515625 -1.546875,0.875 -0.046875,-0.578125 -0.46875,-0.875 -0.921875,-0.875 -0.453125,0 -0.640625,0.390625 -0.734375,0.5625 C 0.421875,-3.5 0.296875,-2.90625 0.296875,-2.875 c 0,0.109375 0.09375,0.109375 0.109375,0.109375 0.109375,0 0.109375,-0.015625 0.171875,-0.234375 0.171875,-0.703125 0.375,-1.1875 0.734375,-1.1875 0.15625,0 0.296875,0.078125 0.296875,0.453125 0,0.21875 -0.03125,0.328125 -0.15625,0.84375 L 0.875,-0.59375 c -0.03125,0.15625 -0.09375,0.390625 -0.09375,0.4375 0,0.171875 0.140625,0.265625 0.296875,0.265625 0.125,0 0.296875,-0.078125 0.375,-0.28125 0,-0.015625 0.125,-0.484375 0.1875,-0.734375 l 0.21875,-0.890625 C 1.90625,-2.03125 1.96875,-2.25 2.03125,-2.46875 2.046875,-2.53125 2.125,-2.859375 2.140625,-2.921875 2.15625,-3.015625 2.46875,-3.5625 2.8125,-3.84375 3.03125,-4 3.34375,-4.1875 3.765625,-4.1875 c 0.4375,0 0.546875,0.34375 0.546875,0.703125 0,0.046875 0,0.21875 -0.109375,0.625 l -1.125,4.578125 c -0.03125,0.125 -0.03125,0.140625 -0.03125,0.171875 0,0.140625 0.109375,0.265625 0.265625,0.265625 0.3125,0 0.390625,-0.296875 0.421875,-0.40625 z m 0,0"
               id="id-a2a170c5-42f5-4313-a377-62e2a8c10bd7" />
          </g>
          <g
             id="id-50e96c6e-73e0-497f-b796-7f74584ee746">
            <path
               d="m 2.1875,-4.625 c 0,-0.015625 0.015625,-0.109375 0.015625,-0.109375 0,-0.046875 -0.015625,-0.109375 -0.109375,-0.109375 -0.140625,0 -0.71875,0.0625 -0.890625,0.078125 -0.046875,0 -0.15625,0.015625 -0.15625,0.15625 0,0.09375 0.109375,0.09375 0.1875,0.09375 0.328125,0 0.328125,0.0625 0.328125,0.109375 0,0.046875 -0.015625,0.09375 -0.015625,0.15625 L 0.5625,-0.3125 c -0.046875,0.125 -0.046875,0.140625 -0.046875,0.15625 0,0.109375 0.09375,0.21875 0.25,0.21875 0.078125,0 0.203125,-0.03125 0.28125,-0.171875 C 1.0625,-0.15625 1.125,-0.40625 1.15625,-0.546875 l 0.171875,-0.625 C 1.34375,-1.28125 1.421875,-1.546875 1.4375,-1.640625 1.5,-1.90625 1.5,-1.921875 1.640625,-2.140625 1.875,-2.484375 2.21875,-2.875 2.765625,-2.875 c 0.390625,0 0.40625,0.3125 0.40625,0.484375 0,0.421875 -0.296875,1.1875 -0.40625,1.484375 -0.078125,0.203125 -0.109375,0.265625 -0.109375,0.375 0,0.375 0.3125,0.59375 0.65625,0.59375 0.703125,0 1.015625,-0.953125 1.015625,-1.0625 0,-0.09375 -0.09375,-0.09375 -0.125,-0.09375 -0.09375,0 -0.09375,0.046875 -0.125,0.125 -0.15625,0.5625 -0.46875,0.84375 -0.734375,0.84375 -0.15625,0 -0.1875,-0.09375 -0.1875,-0.25 0,-0.15625 0.046875,-0.25 0.171875,-0.5625 C 3.40625,-1.15625 3.6875,-1.890625 3.6875,-2.28125 c 0,-0.109375 0,-0.40625 -0.25,-0.609375 -0.125,-0.078125 -0.328125,-0.1875 -0.65625,-0.1875 -0.5,0 -0.875,0.28125 -1.125,0.578125 z m 0,0"
               id="id-fb832908-501b-4ee5-b5b1-f2de8d66495a" />
          </g>
          <g
             id="id-306adb8b-ff69-4328-82c8-c6c85c6901b1">
            <path
               d="m 4.390625,-1.109375 c 0.078125,0 0.203125,0 0.203125,-0.140625 0,-0.140625 -0.125,-0.140625 -0.203125,-0.140625 h -3.375 c -0.078125,0 -0.21875,0 -0.21875,0.140625 0,0.140625 0.140625,0.140625 0.21875,0.140625 z m 0,0"
               id="id-94f67d86-3927-459f-b7d7-90306fbaf1aa" />
          </g>
          <g
             id="id-5c096a09-8949-4ab3-9ac1-b1ab3962b2cf">
            <path
               d="M 1.984375,-3.171875 C 1.984375,-3.3125 1.96875,-3.3125 1.796875,-3.3125 1.453125,-3 0.890625,-3 0.796875,-3 H 0.71875 v 0.21875 h 0.078125 c 0.109375,0 0.4375,-0.015625 0.734375,-0.140625 v 2.5 c 0,0.140625 0,0.203125 -0.53125,0.203125 H 0.75 V 0 c 0.265625,-0.015625 0.71875,-0.015625 1,-0.015625 0.296875,0 0.734375,0 1.015625,0.015625 v -0.21875 h -0.25 c -0.53125,0 -0.53125,-0.0625 -0.53125,-0.203125 z m 0,0"
               id="id-4fda1777-76c1-47d5-b80b-73ff464de862" />
          </g>
          <g
             id="id-d6b21017-a89b-4a21-9df6-585f6ad68a69">
            <path
               d="m 5.1875,-1.578125 c 0.109375,0 0.28125,0 0.28125,-0.15625 0,-0.1875 -0.171875,-0.1875 -0.28125,-0.1875 H 1.03125 c -0.109375,0 -0.28125,0 -0.28125,0.171875 0,0.171875 0.15625,0.171875 0.28125,0.171875 z m 0,0"
               id="id-34079628-3355-444f-8bc4-b02e91acdfe6" />
          </g>
          <g
             id="id-53d58651-f463-4895-9bfa-0e5ba49c35e0">
            <path
               d="m 2.328125,-4.4375 c 0,-0.1875 0,-0.1875 -0.203125,-0.1875 -0.453125,0.4375 -1.078125,0.4375 -1.359375,0.4375 v 0.25 c 0.15625,0 0.625,0 1,-0.1875 v 3.546875 c 0,0.234375 0,0.328125 -0.6875,0.328125 H 0.8125 V 0 c 0.125,0 0.984375,-0.03125 1.234375,-0.03125 0.21875,0 1.09375,0.03125 1.25,0.03125 V -0.25 H 3.03125 c -0.703125,0 -0.703125,-0.09375 -0.703125,-0.328125 z m 0,0"
               id="id-b803db3d-b07f-4fa5-8cee-85303c643434" />
          </g>
        </g>
      </defs>
      <g
         fill="#000000"
         fill-opacity="1"
         id="id-4b69ea9e-f03a-4fc1-aa6f-8565348ffb50"
         transform="translate(-149.696,-126.524)">
        <g
           transform="translate(148.712,134.765)"
           id="g9">
          <path
             d="m 3.296875,2.390625 c 0,-0.03125 0,-0.046875 -0.171875,-0.21875 C 1.890625,0.921875 1.5625,-0.96875 1.5625,-2.5 c 0,-1.734375 0.375,-3.46875 1.609375,-4.703125 0.125,-0.125 0.125,-0.140625 0.125,-0.171875 0,-0.078125 -0.03125,-0.109375 -0.09375,-0.109375 -0.109375,0 -1,0.6875 -1.59375,1.953125 -0.5,1.09375 -0.625,2.203125 -0.625,3.03125 0,0.78125 0.109375,1.984375 0.65625,3.125 C 2.25,1.84375 3.09375,2.5 3.203125,2.5 c 0.0625,0 0.09375,-0.03125 0.09375,-0.109375 z m 0,0"
             id="id-6776fe49-5ded-4fdf-b142-66212ed26983" />
        </g>
      </g>
      <g
         fill="#000000"
         fill-opacity="1"
         id="id-706651ea-9e9a-40d7-8ddb-de1701fe86a2"
         transform="translate(-149.696,-126.524)">
        <g
           transform="translate(152.587,134.765)"
           id="g10">
          <path
             d="M 4.859375,-2.765625 C 4.921875,-2.9375 4.9375,-3.078125 4.9375,-3.34375 c 0,-0.640625 -0.390625,-1.0625 -1.140625,-1.0625 -0.78125,0 -1.296875,0.515625 -1.546875,0.875 -0.046875,-0.578125 -0.46875,-0.875 -0.921875,-0.875 -0.453125,0 -0.640625,0.390625 -0.734375,0.5625 C 0.421875,-3.5 0.296875,-2.90625 0.296875,-2.875 c 0,0.109375 0.09375,0.109375 0.109375,0.109375 0.109375,0 0.109375,-0.015625 0.171875,-0.234375 0.171875,-0.703125 0.375,-1.1875 0.734375,-1.1875 0.15625,0 0.296875,0.078125 0.296875,0.453125 0,0.21875 -0.03125,0.328125 -0.15625,0.84375 L 0.875,-0.59375 c -0.03125,0.15625 -0.09375,0.390625 -0.09375,0.4375 0,0.171875 0.140625,0.265625 0.296875,0.265625 0.125,0 0.296875,-0.078125 0.375,-0.28125 0,-0.015625 0.125,-0.484375 0.1875,-0.734375 l 0.21875,-0.890625 C 1.90625,-2.03125 1.96875,-2.25 2.03125,-2.46875 2.046875,-2.53125 2.125,-2.859375 2.140625,-2.921875 2.15625,-3.015625 2.46875,-3.5625 2.8125,-3.84375 3.03125,-4 3.34375,-4.1875 3.765625,-4.1875 c 0.4375,0 0.546875,0.34375 0.546875,0.703125 0,0.046875 0,0.21875 -0.109375,0.625 l -1.125,4.578125 c -0.03125,0.125 -0.03125,0.140625 -0.03125,0.171875 0,0.140625 0.109375,0.265625 0.265625,0.265625 0.3125,0 0.390625,-0.296875 0.421875,-0.40625 z m 0,0"
             id="id-44f201fb-ffdc-4134-96c4-67217a0781c9" />
        </g>
      </g>
      <g
         fill="#000000"
         fill-opacity="1"
         id="id-dc79e139-7de5-4461-8aec-3d20bfef03fd"
         transform="translate(-149.696,-126.524)">
        <g
           transform="translate(157.533,136.647)"
           id="g11">
          <path
             d="m 2.1875,-4.625 c 0,-0.015625 0.015625,-0.109375 0.015625,-0.109375 0,-0.046875 -0.015625,-0.109375 -0.109375,-0.109375 -0.140625,0 -0.71875,0.0625 -0.890625,0.078125 -0.046875,0 -0.15625,0.015625 -0.15625,0.15625 0,0.09375 0.109375,0.09375 0.1875,0.09375 0.328125,0 0.328125,0.0625 0.328125,0.109375 0,0.046875 -0.015625,0.09375 -0.015625,0.15625 L 0.5625,-0.3125 c -0.046875,0.125 -0.046875,0.140625 -0.046875,0.15625 0,0.109375 0.09375,0.21875 0.25,0.21875 0.078125,0 0.203125,-0.03125 0.28125,-0.171875 C 1.0625,-0.15625 1.125,-0.40625 1.15625,-0.546875 l 0.171875,-0.625 C 1.34375,-1.28125 1.421875,-1.546875 1.4375,-1.640625 1.5,-1.90625 1.5,-1.921875 1.640625,-2.140625 1.875,-2.484375 2.21875,-2.875 2.765625,-2.875 c 0.390625,0 0.40625,0.3125 0.40625,0.484375 0,0.421875 -0.296875,1.1875 -0.40625,1.484375 -0.078125,0.203125 -0.109375,0.265625 -0.109375,0.375 0,0.375 0.3125,0.59375 0.65625,0.59375 0.703125,0 1.015625,-0.953125 1.015625,-1.0625 0,-0.09375 -0.09375,-0.09375 -0.125,-0.09375 -0.09375,0 -0.09375,0.046875 -0.125,0.125 -0.15625,0.5625 -0.46875,0.84375 -0.734375,0.84375 -0.15625,0 -0.1875,-0.09375 -0.1875,-0.25 0,-0.15625 0.046875,-0.25 0.171875,-0.5625 C 3.40625,-1.15625 3.6875,-1.890625 3.6875,-2.28125 c 0,-0.109375 0,-0.40625 -0.25,-0.609375 -0.125,-0.078125 -0.328125,-0.1875 -0.65625,-0.1875 -0.5,0 -0.875,0.28125 -1.125,0.578125 z m 0,0"
             id="id-0dead069-7254-44b0-be06-536aac23592a" />
        </g>
      </g>
      <g
         fill="#000000"
         fill-opacity="1"
         id="id-fd6fe1ff-dedf-4c50-adb7-4a08a3678f09"
         transform="translate(-149.696,-126.524)">
        <g
           transform="translate(162.198,134.654)"
           id="g12">
          <path
             d="m 4.390625,-1.109375 c 0.078125,0 0.203125,0 0.203125,-0.140625 0,-0.140625 -0.125,-0.140625 -0.203125,-0.140625 h -3.375 c -0.078125,0 -0.21875,0 -0.21875,0.140625 0,0.140625 0.140625,0.140625 0.21875,0.140625 z m 0,0"
             id="id-9b5e5b33-1b88-4fcb-b418-c67f05cd3412" />
        </g>
      </g>
      <g
         fill="#000000"
         fill-opacity="1"
         id="id-3f49a250-2d75-44b4-830e-d1c5b503ca9a"
         transform="translate(-149.696,-126.524)">
        <g
           transform="translate(167.594,134.654)"
           id="g13">
          <path
             d="M 1.984375,-3.171875 C 1.984375,-3.3125 1.96875,-3.3125 1.796875,-3.3125 1.453125,-3 0.890625,-3 0.796875,-3 H 0.71875 v 0.21875 h 0.078125 c 0.109375,0 0.4375,-0.015625 0.734375,-0.140625 v 2.5 c 0,0.140625 0,0.203125 -0.53125,0.203125 H 0.75 V 0 c 0.265625,-0.015625 0.71875,-0.015625 1,-0.015625 0.296875,0 0.734375,0 1.015625,0.015625 v -0.21875 h -0.25 c -0.53125,0 -0.53125,-0.0625 -0.53125,-0.203125 z m 0,0"
             id="id-aa35fc57-ce12-4514-b59c-cee19e583e6f" />
        </g>
      </g>
      <g
         fill="#000000"
         fill-opacity="1"
         id="id-96463212-c2d5-4e47-bc6a-512be02a7735"
         transform="translate(-149.696,-126.524)">
        <g
           transform="translate(171.981,134.765)"
           id="g14">
          <path
             d="m 2.875,-2.5 c 0,-0.765625 -0.109375,-1.96875 -0.65625,-3.109375 -0.59375,-1.21875 -1.453125,-1.875 -1.546875,-1.875 -0.0625,0 -0.109375,0.046875 -0.109375,0.109375 0,0.03125 0,0.046875 0.1875,0.234375 0.984375,0.984375 1.546875,2.5625 1.546875,4.640625 0,1.71875 -0.359375,3.46875 -1.59375,4.71875 C 0.5625,2.34375 0.5625,2.359375 0.5625,2.390625 0.5625,2.453125 0.609375,2.5 0.671875,2.5 0.765625,2.5 1.671875,1.8125 2.25,0.546875 2.765625,-0.546875 2.875,-1.65625 2.875,-2.5 Z m 0,0"
             id="id-2dd7be46-d741-4bf7-8d29-93f559067204" />
        </g>
      </g>
      <g
         fill="#000000"
         fill-opacity="1"
         id="id-518ef7b2-92f7-45c0-b9ed-acdf352e3f39"
         transform="translate(-149.696,-126.524)">
        <g
           transform="translate(175.855,131.149)"
           id="g15">
          <path
             d="m 5.1875,-1.578125 c 0.109375,0 0.28125,0 0.28125,-0.15625 0,-0.1875 -0.171875,-0.1875 -0.28125,-0.1875 H 1.03125 c -0.109375,0 -0.28125,0 -0.28125,0.171875 0,0.171875 0.15625,0.171875 0.28125,0.171875 z m 0,0"
             id="id-93bfd0e1-6a0c-42e6-bf59-e86217b90d3b" />
        </g>
      </g>
      <g
         fill="#000000"
         fill-opacity="1"
         id="id-25a537c7-0e4f-49b6-90d2-52c43d93ee59"
         transform="translate(-149.696,-126.524)">
        <g
           transform="translate(182.082,131.149)"
           id="g16">
          <path
             d="m 2.328125,-4.4375 c 0,-0.1875 0,-0.1875 -0.203125,-0.1875 -0.453125,0.4375 -1.078125,0.4375 -1.359375,0.4375 v 0.25 c 0.15625,0 0.625,0 1,-0.1875 v 3.546875 c 0,0.234375 0,0.328125 -0.6875,0.328125 H 0.8125 V 0 c 0.125,0 0.984375,-0.03125 1.234375,-0.03125 0.21875,0 1.09375,0.03125 1.25,0.03125 V -0.25 H 3.03125 c -0.703125,0 -0.703125,-0.09375 -0.703125,-0.328125 z m 0,0"
             id="id-5789d06c-051a-46a0-952d-40ef7dc80d32" />
        </g>
      </g>
    </g>
    <g
       transform="matrix(0.0705556,0,0,0.0705556,73.581311,187.11302)"
       ns2:version="1.10.2"
       ns2:texconverter="pdflatex"
       ns2:pdfconverter="inkscape"
       ns2:text="$(\\psi_{h^{-1}})^{-1}$"
       ns2:preamble="/Users/abigailwatkins/Library/Application Support/org.inkscape.Inkscape/config/inkscape/extensions/textext/default_packages.tex"
       ns2:scale="0.2"
       ns2:alignment="middle center"
       ns2:stroke-to-path="0"
       ns2:inkscapeversion="1.4"
       ns2:jacobian_sqrt="0.0705556"
       id="g41">
      <defs
         id="id-824aa89f-8238-42b5-8913-21be06661db3">
        <g
           id="id-15802fc6-a683-4300-9a95-2bc2aaf1be01">
          <g
             id="id-db6a289c-5adf-4e8a-bb05-510d65d09af8">
            <path
               d="m 3.296875,2.390625 c 0,-0.03125 0,-0.046875 -0.171875,-0.21875 C 1.890625,0.921875 1.5625,-0.96875 1.5625,-2.5 c 0,-1.734375 0.375,-3.46875 1.609375,-4.703125 0.125,-0.125 0.125,-0.140625 0.125,-0.171875 0,-0.078125 -0.03125,-0.109375 -0.09375,-0.109375 -0.109375,0 -1,0.6875 -1.59375,1.953125 -0.5,1.09375 -0.625,2.203125 -0.625,3.03125 0,0.78125 0.109375,1.984375 0.65625,3.125 C 2.25,1.84375 3.09375,2.5 3.203125,2.5 c 0.0625,0 0.09375,-0.03125 0.09375,-0.109375 z m 0,0"
               id="id-9afc5a46-b8bd-4b12-88d2-a4b76a546fae" />
          </g>
          <g
             id="id-0e62da79-44d7-429d-a4eb-b6b3f083e34d">
            <path
               d="m 2.875,-2.5 c 0,-0.765625 -0.109375,-1.96875 -0.65625,-3.109375 -0.59375,-1.21875 -1.453125,-1.875 -1.546875,-1.875 -0.0625,0 -0.109375,0.046875 -0.109375,0.109375 0,0.03125 0,0.046875 0.1875,0.234375 0.984375,0.984375 1.546875,2.5625 1.546875,4.640625 0,1.71875 -0.359375,3.46875 -1.59375,4.71875 C 0.5625,2.34375 0.5625,2.359375 0.5625,2.390625 0.5625,2.453125 0.609375,2.5 0.671875,2.5 0.765625,2.5 1.671875,1.8125 2.25,0.546875 2.765625,-0.546875 2.875,-1.65625 2.875,-2.5 Z m 0,0"
               id="id-766c3311-1f0b-4770-abe1-0c84682e7d8f" />
          </g>
          <g
             id="id-724f9af1-5edd-4d0a-9a30-bf119b3bca61">
            <path
               d="m 4.8125,-6.65625 c 0,-0.046875 0.015625,-0.109375 0.015625,-0.15625 0,-0.09375 -0.0625,-0.109375 -0.109375,-0.109375 -0.109375,0 -0.109375,0.03125 -0.15625,0.203125 L 2.90625,-0.125 c -0.75,-0.09375 -1.125,-0.46875 -1.125,-1.125 0,-0.203125 0,-0.453125 0.53125,-1.84375 0.046875,-0.125 0.109375,-0.296875 0.109375,-0.5 0,-0.4375 -0.3125,-0.8125 -0.8125,-0.8125 -0.953125,0 -1.3125,1.453125 -1.3125,1.53125 0,0.109375 0.09375,0.109375 0.109375,0.109375 0.109375,0 0.109375,-0.03125 0.15625,-0.1875 0.28125,-0.9375 0.671875,-1.234375 1.015625,-1.234375 0.078125,0 0.25,0 0.25,0.3125 0,0.265625 -0.109375,0.515625 -0.234375,0.859375 C 1.109375,-1.75 1.109375,-1.5 1.109375,-1.328125 1.109375,-0.375 1.890625,0.03125 2.84375,0.09375 2.765625,0.453125 2.765625,0.46875 2.625,1 2.609375,1.109375 2.40625,1.90625 2.40625,1.9375 c 0,0.015625 0,0.109375 0.109375,0.109375 0.03125,0 0.078125,0 0.09375,-0.046875 0.03125,-0.015625 0.09375,-0.265625 0.125,-0.40625 l 0.375,-1.484375 c 0.375,0 1.25,0 2.1875,-1.0625 0.40625,-0.46875 0.609375,-0.90625 0.71875,-1.203125 0.09375,-0.25 0.3125,-1.109375 0.3125,-1.546875 0,-0.5625 -0.265625,-0.703125 -0.4375,-0.703125 -0.25,0 -0.5,0.265625 -0.5,0.484375 0,0.125 0.0625,0.1875 0.15625,0.265625 0.109375,0.109375 0.359375,0.359375 0.359375,0.84375 0,0.640625 -0.515625,1.453125 -0.875,1.8125 -0.875,0.890625 -1.515625,0.890625 -1.875,0.890625 z m 0,0"
               id="id-0c2c2ba2-ce49-4e86-9d1c-97ab54560f87" />
          </g>
          <g
             id="id-8e1e1fd0-9569-49fb-b6b1-8b76fff8536f">
            <path
               d="m 2.1875,-4.625 c 0,-0.015625 0.015625,-0.109375 0.015625,-0.109375 0,-0.046875 -0.015625,-0.109375 -0.109375,-0.109375 -0.140625,0 -0.71875,0.0625 -0.890625,0.078125 -0.046875,0 -0.15625,0.015625 -0.15625,0.15625 0,0.09375 0.109375,0.09375 0.1875,0.09375 0.328125,0 0.328125,0.0625 0.328125,0.109375 0,0.046875 -0.015625,0.09375 -0.015625,0.15625 L 0.5625,-0.3125 c -0.046875,0.125 -0.046875,0.140625 -0.046875,0.15625 0,0.109375 0.09375,0.21875 0.25,0.21875 0.078125,0 0.203125,-0.03125 0.28125,-0.171875 C 1.0625,-0.15625 1.125,-0.40625 1.15625,-0.546875 l 0.171875,-0.625 C 1.34375,-1.28125 1.421875,-1.546875 1.4375,-1.640625 1.5,-1.90625 1.5,-1.921875 1.640625,-2.140625 1.875,-2.484375 2.21875,-2.875 2.765625,-2.875 c 0.390625,0 0.40625,0.3125 0.40625,0.484375 0,0.421875 -0.296875,1.1875 -0.40625,1.484375 -0.078125,0.203125 -0.109375,0.265625 -0.109375,0.375 0,0.375 0.3125,0.59375 0.65625,0.59375 0.703125,0 1.015625,-0.953125 1.015625,-1.0625 0,-0.09375 -0.09375,-0.09375 -0.125,-0.09375 -0.09375,0 -0.09375,0.046875 -0.125,0.125 -0.15625,0.5625 -0.46875,0.84375 -0.734375,0.84375 -0.15625,0 -0.1875,-0.09375 -0.1875,-0.25 0,-0.15625 0.046875,-0.25 0.171875,-0.5625 C 3.40625,-1.15625 3.6875,-1.890625 3.6875,-2.28125 c 0,-0.109375 0,-0.40625 -0.25,-0.609375 -0.125,-0.078125 -0.328125,-0.1875 -0.65625,-0.1875 -0.5,0 -0.875,0.28125 -1.125,0.578125 z m 0,0"
               id="id-0869c180-6d46-4849-8804-d76d94c224ed" />
          </g>
          <g
             id="id-94b73e43-cc45-4e9e-a311-85c0f0868e1c">
            <path
               d="m 4.390625,-1.109375 c 0.078125,0 0.203125,0 0.203125,-0.140625 0,-0.140625 -0.125,-0.140625 -0.203125,-0.140625 h -3.375 c -0.078125,0 -0.21875,0 -0.21875,0.140625 0,0.140625 0.140625,0.140625 0.21875,0.140625 z m 0,0"
               id="id-6789cc0e-4473-46df-8b23-332ed6574d0a" />
          </g>
          <g
             id="id-f4da40ad-06f8-408d-95c8-afbc9ac0a3aa">
            <path
               d="M 1.984375,-3.171875 C 1.984375,-3.3125 1.96875,-3.3125 1.796875,-3.3125 1.453125,-3 0.890625,-3 0.796875,-3 H 0.71875 v 0.21875 h 0.078125 c 0.109375,0 0.4375,-0.015625 0.734375,-0.140625 v 2.5 c 0,0.140625 0,0.203125 -0.53125,0.203125 H 0.75 V 0 c 0.265625,-0.015625 0.71875,-0.015625 1,-0.015625 0.296875,0 0.734375,0 1.015625,0.015625 v -0.21875 h -0.25 c -0.53125,0 -0.53125,-0.0625 -0.53125,-0.203125 z m 0,0"
               id="id-d28185de-6923-4ccc-969b-9ff3c0f44ecc" />
          </g>
          <g
             id="id-80c506b0-2118-481f-ac9f-217c734b945b">
            <path
               d="m 5.1875,-1.578125 c 0.109375,0 0.28125,0 0.28125,-0.15625 0,-0.1875 -0.171875,-0.1875 -0.28125,-0.1875 H 1.03125 c -0.109375,0 -0.28125,0 -0.28125,0.171875 0,0.171875 0.15625,0.171875 0.28125,0.171875 z m 0,0"
               id="id-aadb7697-f9a3-4e7f-ab1f-823005aeddf6" />
          </g>
          <g
             id="id-5be73681-f25c-4841-999f-182aa388db45">
            <path
               d="m 2.328125,-4.4375 c 0,-0.1875 0,-0.1875 -0.203125,-0.1875 -0.453125,0.4375 -1.078125,0.4375 -1.359375,0.4375 v 0.25 c 0.15625,0 0.625,0 1,-0.1875 v 3.546875 c 0,0.234375 0,0.328125 -0.6875,0.328125 H 0.8125 V 0 c 0.125,0 0.984375,-0.03125 1.234375,-0.03125 0.21875,0 1.09375,0.03125 1.25,0.03125 V -0.25 H 3.03125 c -0.703125,0 -0.703125,-0.09375 -0.703125,-0.328125 z m 0,0"
               id="id-89bfdcef-c791-4614-8be1-c8d8fef84523" />
          </g>
        </g>
      </defs>
      <g
         fill="#000000"
         fill-opacity="1"
         id="id-4e75a299-0aba-42e8-9976-eb4224042de3"
         transform="translate(-149.696,-126.524)">
        <g
           transform="translate(148.712,134.765)"
           id="g33">
          <path
             d="m 3.296875,2.390625 c 0,-0.03125 0,-0.046875 -0.171875,-0.21875 C 1.890625,0.921875 1.5625,-0.96875 1.5625,-2.5 c 0,-1.734375 0.375,-3.46875 1.609375,-4.703125 0.125,-0.125 0.125,-0.140625 0.125,-0.171875 0,-0.078125 -0.03125,-0.109375 -0.09375,-0.109375 -0.109375,0 -1,0.6875 -1.59375,1.953125 -0.5,1.09375 -0.625,2.203125 -0.625,3.03125 0,0.78125 0.109375,1.984375 0.65625,3.125 C 2.25,1.84375 3.09375,2.5 3.203125,2.5 c 0.0625,0 0.09375,-0.03125 0.09375,-0.109375 z m 0,0"
             id="id-c350d86b-da8a-44b2-a294-7f36694b365e" />
        </g>
      </g>
      <g
         fill="#000000"
         fill-opacity="1"
         id="id-192f1ebc-7724-46ee-ade5-2e0e880a957b"
         transform="translate(-149.696,-126.524)">
        <g
           transform="translate(152.587,134.765)"
           id="g34">
          <path
             d="m 4.8125,-6.65625 c 0,-0.046875 0.015625,-0.109375 0.015625,-0.15625 0,-0.09375 -0.0625,-0.109375 -0.109375,-0.109375 -0.109375,0 -0.109375,0.03125 -0.15625,0.203125 L 2.90625,-0.125 c -0.75,-0.09375 -1.125,-0.46875 -1.125,-1.125 0,-0.203125 0,-0.453125 0.53125,-1.84375 0.046875,-0.125 0.109375,-0.296875 0.109375,-0.5 0,-0.4375 -0.3125,-0.8125 -0.8125,-0.8125 -0.953125,0 -1.3125,1.453125 -1.3125,1.53125 0,0.109375 0.09375,0.109375 0.109375,0.109375 0.109375,0 0.109375,-0.03125 0.15625,-0.1875 0.28125,-0.9375 0.671875,-1.234375 1.015625,-1.234375 0.078125,0 0.25,0 0.25,0.3125 0,0.265625 -0.109375,0.515625 -0.234375,0.859375 C 1.109375,-1.75 1.109375,-1.5 1.109375,-1.328125 1.109375,-0.375 1.890625,0.03125 2.84375,0.09375 2.765625,0.453125 2.765625,0.46875 2.625,1 2.609375,1.109375 2.40625,1.90625 2.40625,1.9375 c 0,0.015625 0,0.109375 0.109375,0.109375 0.03125,0 0.078125,0 0.09375,-0.046875 0.03125,-0.015625 0.09375,-0.265625 0.125,-0.40625 l 0.375,-1.484375 c 0.375,0 1.25,0 2.1875,-1.0625 0.40625,-0.46875 0.609375,-0.90625 0.71875,-1.203125 0.09375,-0.25 0.3125,-1.109375 0.3125,-1.546875 0,-0.5625 -0.265625,-0.703125 -0.4375,-0.703125 -0.25,0 -0.5,0.265625 -0.5,0.484375 0,0.125 0.0625,0.1875 0.15625,0.265625 0.109375,0.109375 0.359375,0.359375 0.359375,0.84375 0,0.640625 -0.515625,1.453125 -0.875,1.8125 -0.875,0.890625 -1.515625,0.890625 -1.875,0.890625 z m 0,0"
             id="id-04bfba24-98c4-466a-af08-9bc87574f4d9" />
        </g>
      </g>
      <g
         fill="#000000"
         fill-opacity="1"
         id="id-a5ae57b7-aaae-4d2b-9b0a-1b44a191c6dc"
         transform="translate(-149.696,-126.524)">
        <g
           transform="translate(159.076,136.647)"
           id="g35">
          <path
             d="m 2.1875,-4.625 c 0,-0.015625 0.015625,-0.109375 0.015625,-0.109375 0,-0.046875 -0.015625,-0.109375 -0.109375,-0.109375 -0.140625,0 -0.71875,0.0625 -0.890625,0.078125 -0.046875,0 -0.15625,0.015625 -0.15625,0.15625 0,0.09375 0.109375,0.09375 0.1875,0.09375 0.328125,0 0.328125,0.0625 0.328125,0.109375 0,0.046875 -0.015625,0.09375 -0.015625,0.15625 L 0.5625,-0.3125 c -0.046875,0.125 -0.046875,0.140625 -0.046875,0.15625 0,0.109375 0.09375,0.21875 0.25,0.21875 0.078125,0 0.203125,-0.03125 0.28125,-0.171875 C 1.0625,-0.15625 1.125,-0.40625 1.15625,-0.546875 l 0.171875,-0.625 C 1.34375,-1.28125 1.421875,-1.546875 1.4375,-1.640625 1.5,-1.90625 1.5,-1.921875 1.640625,-2.140625 1.875,-2.484375 2.21875,-2.875 2.765625,-2.875 c 0.390625,0 0.40625,0.3125 0.40625,0.484375 0,0.421875 -0.296875,1.1875 -0.40625,1.484375 -0.078125,0.203125 -0.109375,0.265625 -0.109375,0.375 0,0.375 0.3125,0.59375 0.65625,0.59375 0.703125,0 1.015625,-0.953125 1.015625,-1.0625 0,-0.09375 -0.09375,-0.09375 -0.125,-0.09375 -0.09375,0 -0.09375,0.046875 -0.125,0.125 -0.15625,0.5625 -0.46875,0.84375 -0.734375,0.84375 -0.15625,0 -0.1875,-0.09375 -0.1875,-0.25 0,-0.15625 0.046875,-0.25 0.171875,-0.5625 C 3.40625,-1.15625 3.6875,-1.890625 3.6875,-2.28125 c 0,-0.109375 0,-0.40625 -0.25,-0.609375 -0.125,-0.078125 -0.328125,-0.1875 -0.65625,-0.1875 -0.5,0 -0.875,0.28125 -1.125,0.578125 z m 0,0"
             id="id-0b9d5340-0c28-4096-82db-e37d27460dfd" />
        </g>
      </g>
      <g
         fill="#000000"
         fill-opacity="1"
         id="id-28267229-9ec2-4f92-aa07-e5daec4b6b23"
         transform="translate(-149.696,-126.524)">
        <g
           transform="translate(163.741,134.654)"
           id="g36">
          <path
             d="m 4.390625,-1.109375 c 0.078125,0 0.203125,0 0.203125,-0.140625 0,-0.140625 -0.125,-0.140625 -0.203125,-0.140625 h -3.375 c -0.078125,0 -0.21875,0 -0.21875,0.140625 0,0.140625 0.140625,0.140625 0.21875,0.140625 z m 0,0"
             id="id-0346b57c-cbfb-4e73-8faa-fab32108c995" />
        </g>
      </g>
      <g
         fill="#000000"
         fill-opacity="1"
         id="id-01c5f93f-34f3-42b0-b9ed-62eb46634f53"
         transform="translate(-149.696,-126.524)">
        <g
           transform="translate(169.137,134.654)"
           id="g37">
          <path
             d="M 1.984375,-3.171875 C 1.984375,-3.3125 1.96875,-3.3125 1.796875,-3.3125 1.453125,-3 0.890625,-3 0.796875,-3 H 0.71875 v 0.21875 h 0.078125 c 0.109375,0 0.4375,-0.015625 0.734375,-0.140625 v 2.5 c 0,0.140625 0,0.203125 -0.53125,0.203125 H 0.75 V 0 c 0.265625,-0.015625 0.71875,-0.015625 1,-0.015625 0.296875,0 0.734375,0 1.015625,0.015625 v -0.21875 h -0.25 c -0.53125,0 -0.53125,-0.0625 -0.53125,-0.203125 z m 0,0"
             id="id-556f5523-3902-4c1d-813d-4681636715ad" />
        </g>
      </g>
      <g
         fill="#000000"
         fill-opacity="1"
         id="id-e7ab03bd-b758-4b8c-a120-85db4f01578b"
         transform="translate(-149.696,-126.524)">
        <g
           transform="translate(173.523,134.765)"
           id="g38">
          <path
             d="m 2.875,-2.5 c 0,-0.765625 -0.109375,-1.96875 -0.65625,-3.109375 -0.59375,-1.21875 -1.453125,-1.875 -1.546875,-1.875 -0.0625,0 -0.109375,0.046875 -0.109375,0.109375 0,0.03125 0,0.046875 0.1875,0.234375 0.984375,0.984375 1.546875,2.5625 1.546875,4.640625 0,1.71875 -0.359375,3.46875 -1.59375,4.71875 C 0.5625,2.34375 0.5625,2.359375 0.5625,2.390625 0.5625,2.453125 0.609375,2.5 0.671875,2.5 0.765625,2.5 1.671875,1.8125 2.25,0.546875 2.765625,-0.546875 2.875,-1.65625 2.875,-2.5 Z m 0,0"
             id="id-87135657-f3e7-445c-8a54-600705747eb6" />
        </g>
      </g>
      <g
         fill="#000000"
         fill-opacity="1"
         id="id-789dd783-3396-4036-8ed3-245252d9e171"
         transform="translate(-149.696,-126.524)">
        <g
           transform="translate(177.398,131.149)"
           id="g39">
          <path
             d="m 5.1875,-1.578125 c 0.109375,0 0.28125,0 0.28125,-0.15625 0,-0.1875 -0.171875,-0.1875 -0.28125,-0.1875 H 1.03125 c -0.109375,0 -0.28125,0 -0.28125,0.171875 0,0.171875 0.15625,0.171875 0.28125,0.171875 z m 0,0"
             id="id-e03b356a-f77a-4064-82af-897a6f17dd1e" />
        </g>
      </g>
      <g
         fill="#000000"
         fill-opacity="1"
         id="id-7a946583-bfed-45ff-893e-5d3b3562abca"
         transform="translate(-149.696,-126.524)">
        <g
           transform="translate(183.624,131.149)"
           id="g40">
          <path
             d="m 2.328125,-4.4375 c 0,-0.1875 0,-0.1875 -0.203125,-0.1875 -0.453125,0.4375 -1.078125,0.4375 -1.359375,0.4375 v 0.25 c 0.15625,0 0.625,0 1,-0.1875 v 3.546875 c 0,0.234375 0,0.328125 -0.6875,0.328125 H 0.8125 V 0 c 0.125,0 0.984375,-0.03125 1.234375,-0.03125 0.21875,0 1.09375,0.03125 1.25,0.03125 V -0.25 H 3.03125 c -0.703125,0 -0.703125,-0.09375 -0.703125,-0.328125 z m 0,0"
             id="id-a1849587-7f3c-47fb-b3d6-2bb4644057ad" />
        </g>
      </g>
    </g>
    <g
       transform="matrix(0.0705556,0,0,0.0705556,83.62264,178.8319)"
       ns2:version="1.10.2"
       ns2:texconverter="pdflatex"
       ns2:pdfconverter="inkscape"
       ns2:text="$\\cong$"
       ns2:preamble="/Users/abigailwatkins/Library/Application Support/org.inkscape.Inkscape/config/inkscape/extensions/textext/default_packages.tex"
       ns2:scale="0.2"
       ns2:alignment="middle center"
       ns2:stroke-to-path="0"
       ns2:inkscapeversion="1.4"
       ns2:jacobian_sqrt="0.0705556"
       id="g44">
      <defs
         id="id-f0f2b81e-0e31-4ecc-add9-099caf3709ae">
        <g
           id="id-818d909f-5ea7-4768-847d-b4116935d96a">
          <g
             id="id-4076c822-56bf-4ed5-bca7-7c7bf3bc77e1">
            <path
               d="m 7.203125,-3.328125 c 0,-0.21875 -0.0625,-0.328125 -0.140625,-0.328125 -0.046875,0 -0.140625,0.078125 -0.140625,0.265625 -0.046875,0.953125 -0.703125,1.5 -1.40625,1.5 -0.625,0 -1.09375,-0.421875 -1.59375,-0.84375 -0.5,-0.46875 -1.015625,-0.921875 -1.703125,-0.921875 -1.078125,0 -1.671875,1.09375 -1.671875,2 0,0.328125 0.125,0.328125 0.140625,0.328125 0.109375,0 0.140625,-0.203125 0.140625,-0.234375 0.046875,-1.09375 0.78125,-1.53125 1.390625,-1.53125 0.625,0 1.109375,0.421875 1.59375,0.84375 0.515625,0.46875 1.03125,0.921875 1.703125,0.921875 1.09375,0 1.6875,-1.09375 1.6875,-2 z m 0,0"
               id="id-59247407-3c89-4881-816b-cedc069d270c" />
          </g>
          <g
             id="id-eea1444f-0091-42a9-a528-47575f545f0a">
            <path
               d="m 6.84375,-3.265625 c 0.15625,0 0.34375,0 0.34375,-0.1875 C 7.1875,-3.65625 7,-3.65625 6.859375,-3.65625 h -5.96875 c -0.140625,0 -0.328125,0 -0.328125,0.203125 0,0.1875 0.1875,0.1875 0.328125,0.1875 z m 0.015625,1.9375 c 0.140625,0 0.328125,0 0.328125,-0.203125 0,-0.1875 -0.1875,-0.1875 -0.34375,-0.1875 H 0.890625 c -0.140625,0 -0.328125,0 -0.328125,0.1875 0,0.203125 0.1875,0.203125 0.328125,0.203125 z m 0,0"
               id="id-ad2c1b3e-4ba7-423e-a079-4f04708b835c" />
          </g>
        </g>
      </defs>
      <g
         fill="#000000"
         fill-opacity="1"
         id="id-27b2a616-5a9d-4d43-a181-f484a6abe3e2"
         transform="translate(-149.259,-128.45)">
        <g
           transform="translate(148.712,132.106)"
           id="g42">
          <path
             d="m 7.203125,-3.328125 c 0,-0.21875 -0.0625,-0.328125 -0.140625,-0.328125 -0.046875,0 -0.140625,0.078125 -0.140625,0.265625 -0.046875,0.953125 -0.703125,1.5 -1.40625,1.5 -0.625,0 -1.09375,-0.421875 -1.59375,-0.84375 -0.5,-0.46875 -1.015625,-0.921875 -1.703125,-0.921875 -1.078125,0 -1.671875,1.09375 -1.671875,2 0,0.328125 0.125,0.328125 0.140625,0.328125 0.109375,0 0.140625,-0.203125 0.140625,-0.234375 0.046875,-1.09375 0.78125,-1.53125 1.390625,-1.53125 0.625,0 1.109375,0.421875 1.59375,0.84375 0.515625,0.46875 1.03125,0.921875 1.703125,0.921875 1.09375,0 1.6875,-1.09375 1.6875,-2 z m 0,0"
             id="id-38b0317b-1e8e-4b2e-8da4-58f87a88a138" />
        </g>
      </g>
      <g
         fill="#000000"
         fill-opacity="1"
         id="id-330dde69-e4e8-4a65-89ae-5cb510938c21"
         transform="translate(-149.259,-128.45)">
        <g
           transform="translate(148.712,135.263)"
           id="g43">
          <path
             d="m 6.84375,-3.265625 c 0.15625,0 0.34375,0 0.34375,-0.1875 C 7.1875,-3.65625 7,-3.65625 6.859375,-3.65625 h -5.96875 c -0.140625,0 -0.328125,0 -0.328125,0.203125 0,0.1875 0.1875,0.1875 0.328125,0.1875 z m 0.015625,1.9375 c 0.140625,0 0.328125,0 0.328125,-0.203125 0,-0.1875 -0.1875,-0.1875 -0.34375,-0.1875 H 0.890625 c -0.140625,0 -0.328125,0 -0.328125,0.1875 0,0.203125 0.1875,0.203125 0.328125,0.203125 z m 0,0"
             id="id-b4e85836-03fd-4058-82e0-34dbef571568" />
        </g>
      </g>
    </g>
    <g
       transform="matrix(0.0705556,0,0,0.0705556,81.505972,178.8422)"
       ns2:version="1.10.2"
       ns2:texconverter="pdflatex"
       ns2:pdfconverter="inkscape"
       ns2:text="$\\cong$"
       ns2:preamble="/Users/abigailwatkins/Library/Application Support/org.inkscape.Inkscape/config/inkscape/extensions/textext/default_packages.tex"
       ns2:scale="0.2"
       ns2:alignment="middle center"
       ns2:stroke-to-path="0"
       ns2:inkscapeversion="1.4"
       ns2:jacobian_sqrt="0.0705556"
       id="g52">
      <defs
         id="defs47">
        <g
           id="g47">
          <g
             id="g45">
            <path
               d="m 7.203125,-3.328125 c 0,-0.21875 -0.0625,-0.328125 -0.140625,-0.328125 -0.046875,0 -0.140625,0.078125 -0.140625,0.265625 -0.046875,0.953125 -0.703125,1.5 -1.40625,1.5 -0.625,0 -1.09375,-0.421875 -1.59375,-0.84375 -0.5,-0.46875 -1.015625,-0.921875 -1.703125,-0.921875 -1.078125,0 -1.671875,1.09375 -1.671875,2 0,0.328125 0.125,0.328125 0.140625,0.328125 0.109375,0 0.140625,-0.203125 0.140625,-0.234375 0.046875,-1.09375 0.78125,-1.53125 1.390625,-1.53125 0.625,0 1.109375,0.421875 1.59375,0.84375 0.515625,0.46875 1.03125,0.921875 1.703125,0.921875 1.09375,0 1.6875,-1.09375 1.6875,-2 z m 0,0"
               id="path44" />
          </g>
          <g
             id="g46">
            <path
               d="m 6.84375,-3.265625 c 0.15625,0 0.34375,0 0.34375,-0.1875 C 7.1875,-3.65625 7,-3.65625 6.859375,-3.65625 h -5.96875 c -0.140625,0 -0.328125,0 -0.328125,0.203125 0,0.1875 0.1875,0.1875 0.328125,0.1875 z m 0.015625,1.9375 c 0.140625,0 0.328125,0 0.328125,-0.203125 0,-0.1875 -0.1875,-0.1875 -0.34375,-0.1875 H 0.890625 c -0.140625,0 -0.328125,0 -0.328125,0.1875 0,0.203125 0.1875,0.203125 0.328125,0.203125 z m 0,0"
               id="path46" />
          </g>
        </g>
      </defs>
      <g
         fill="#000000"
         fill-opacity="1"
         id="g49"
         transform="translate(-149.259,-128.45)">
        <g
           transform="translate(148.712,132.106)"
           id="g48">
          <path
             d="m 7.203125,-3.328125 c 0,-0.21875 -0.0625,-0.328125 -0.140625,-0.328125 -0.046875,0 -0.140625,0.078125 -0.140625,0.265625 -0.046875,0.953125 -0.703125,1.5 -1.40625,1.5 -0.625,0 -1.09375,-0.421875 -1.59375,-0.84375 -0.5,-0.46875 -1.015625,-0.921875 -1.703125,-0.921875 -1.078125,0 -1.671875,1.09375 -1.671875,2 0,0.328125 0.125,0.328125 0.140625,0.328125 0.109375,0 0.140625,-0.203125 0.140625,-0.234375 0.046875,-1.09375 0.78125,-1.53125 1.390625,-1.53125 0.625,0 1.109375,0.421875 1.59375,0.84375 0.515625,0.46875 1.03125,0.921875 1.703125,0.921875 1.09375,0 1.6875,-1.09375 1.6875,-2 z m 0,0"
             id="path47" />
        </g>
      </g>
      <g
         fill="#000000"
         fill-opacity="1"
         id="g51"
         transform="translate(-149.259,-128.45)">
        <g
           transform="translate(148.712,135.263)"
           id="g50">
          <path
             d="m 6.84375,-3.265625 c 0.15625,0 0.34375,0 0.34375,-0.1875 C 7.1875,-3.65625 7,-3.65625 6.859375,-3.65625 h -5.96875 c -0.140625,0 -0.328125,0 -0.328125,0.203125 0,0.1875 0.1875,0.1875 0.328125,0.1875 z m 0.015625,1.9375 c 0.140625,0 0.328125,0 0.328125,-0.203125 0,-0.1875 -0.1875,-0.1875 -0.34375,-0.1875 H 0.890625 c -0.140625,0 -0.328125,0 -0.328125,0.1875 0,0.203125 0.1875,0.203125 0.328125,0.203125 z m 0,0"
             id="path49" />
        </g>
      </g>
    </g>
  </g>
</svg>
