<?xml version="1.0" encoding="UTF-8" standalone="no"?>
<!-- Created with Inkscape (http://www.inkscape.org/) -->

<svg
   width="210mm"
   height="297mm"
   viewBox="0 0 210 297"
   version="1.1"
   id="svg1"
   inkscape:version="1.4 (e7c3feb1, 2024-10-09)"
   sodipodi:docname="rhsT3check2.svg"
   xmlns:inkscape="http://www.inkscape.org/namespaces/inkscape"
   xmlns:sodipodi="http://sodipodi.sourceforge.net/DTD/sodipodi-0.dtd"
   xmlns="http://www.w3.org/2000/svg"
   xmlns:svg="http://www.w3.org/2000/svg"
   xmlns:ns8="http://www.iki.fi/pav/software/textext/">
  <sodipodi:namedview
     id="namedview1"
     pagecolor="#ffffff"
     bordercolor="#000000"
     borderopacity="0.25"
     inkscape:showpageshadow="2"
     inkscape:pageopacity="0.0"
     inkscape:pagecheckerboard="0"
     inkscape:deskcolor="#d1d1d1"
     inkscape:document-units="mm"
     inkscape:zoom="5.9181041"
     inkscape:cx="370.55786"
     inkscape:cy="456.22719"
     inkscape:window-width="1440"
     inkscape:window-height="767"
     inkscape:window-x="0"
     inkscape:window-y="25"
     inkscape:window-maximized="0"
     inkscape:current-layer="layer1" />
  <defs
     id="defs1">
    <inkscape:path-effect
       effect="bspline"
       id="path-effect21"
       is_visible="true"
       lpeversion="1.3"
       weight="33.333333"
       steps="2"
       helper_size="0"
       apply_no_weight="true"
       apply_with_weight="true"
       only_selected="false"
       uniform="false" />
    <inkscape:path-effect
       effect="bspline"
       id="path-effect19"
       is_visible="true"
       lpeversion="1.3"
       weight="33.333333"
       steps="2"
       helper_size="0"
       apply_no_weight="true"
       apply_with_weight="true"
       only_selected="false"
       uniform="false" />
    <inkscape:path-effect
       effect="bspline"
       id="path-effect18"
       is_visible="true"
       lpeversion="1.3"
       weight="33.333333"
       steps="2"
       helper_size="0"
       apply_no_weight="true"
       apply_with_weight="true"
       only_selected="false"
       uniform="false" />
    <inkscape:path-effect
       effect="bspline"
       id="path-effect17"
       is_visible="true"
       lpeversion="1.3"
       weight="33.333333"
       steps="2"
       helper_size="0"
       apply_no_weight="true"
       apply_with_weight="true"
       only_selected="false"
       uniform="false" />
    <inkscape:path-effect
       effect="bspline"
       id="path-effect13"
       is_visible="true"
       lpeversion="1.3"
       weight="33.333333"
       steps="2"
       helper_size="0"
       apply_no_weight="true"
       apply_with_weight="true"
       only_selected="false"
       uniform="false" />
    <inkscape:path-effect
       effect="bspline"
       id="path-effect8"
       is_visible="true"
       lpeversion="1.3"
       weight="33.333333"
       steps="2"
       helper_size="0"
       apply_no_weight="true"
       apply_with_weight="true"
       only_selected="false"
       uniform="false" />
    <inkscape:path-effect
       effect="bspline"
       id="path-effect2"
       is_visible="true"
       lpeversion="1.3"
       weight="33.333333"
       steps="2"
       helper_size="0"
       apply_no_weight="true"
       apply_with_weight="true"
       only_selected="false"
       uniform="false" />
    <marker
       style="overflow:visible"
       id="ArrowWideRounded"
       refX="0"
       refY="0"
       orient="auto-start-reverse"
       inkscape:stockid="Wide, rounded arrow"
       markerWidth="1"
       markerHeight="1"
       viewBox="0 0 1 1"
       inkscape:isstock="true"
       inkscape:collect="always"
       preserveAspectRatio="xMidYMid">
      <path
         style="fill:none;stroke:context-stroke;stroke-width:1;stroke-linecap:round"
         d="M 3,-3 0,0 3,3"
         transform="rotate(180,0.125,0)"
         sodipodi:nodetypes="ccc"
         id="path2" />
    </marker>
    <inkscape:path-effect
       effect="bspline"
       id="path-effect43"
       is_visible="true"
       lpeversion="1.3"
       weight="33.333333"
       steps="2"
       helper_size="0"
       apply_no_weight="true"
       apply_with_weight="true"
       only_selected="false"
       uniform="false" />
    <inkscape:path-effect
       effect="bspline"
       id="path-effect46"
       is_visible="true"
       lpeversion="1.3"
       weight="33.333333"
       steps="2"
       helper_size="0"
       apply_no_weight="true"
       apply_with_weight="true"
       only_selected="false"
       uniform="false" />
    <inkscape:path-effect
       effect="bspline"
       id="path-effect3"
       is_visible="true"
       lpeversion="1.3"
       weight="33.333333"
       steps="2"
       helper_size="0"
       apply_no_weight="true"
       apply_with_weight="true"
       only_selected="false"
       uniform="false" />
    <inkscape:path-effect
       effect="bspline"
       id="path-effect4"
       is_visible="true"
       lpeversion="1.3"
       weight="33.333333"
       steps="2"
       helper_size="0"
       apply_no_weight="true"
       apply_with_weight="true"
       only_selected="false"
       uniform="false" />
    <inkscape:path-effect
       effect="bspline"
       id="path-effect1"
       is_visible="true"
       lpeversion="1.3"
       weight="33.333333"
       steps="2"
       helper_size="0"
       apply_no_weight="true"
       apply_with_weight="true"
       only_selected="false"
       uniform="false" />
    <marker
       style="overflow:visible"
       id="ArrowWideRounded-2"
       refX="0"
       refY="0"
       orient="auto-start-reverse"
       inkscape:stockid="Wide, rounded arrow"
       markerWidth="1"
       markerHeight="1"
       viewBox="0 0 1 1"
       inkscape:isstock="true"
       inkscape:collect="always"
       preserveAspectRatio="xMidYMid">
      <path
         style="fill:none;stroke:context-stroke;stroke-width:1;stroke-linecap:round"
         d="M 3,-3 0,0 3,3"
         transform="rotate(180,0.125,0)"
         sodipodi:nodetypes="ccc"
         id="path2-4" />
    </marker>
    <inkscape:path-effect
       effect="bspline"
       id="path-effect43-8"
       is_visible="true"
       lpeversion="1.3"
       weight="33.333333"
       steps="2"
       helper_size="0"
       apply_no_weight="true"
       apply_with_weight="true"
       only_selected="false"
       uniform="false" />
    <inkscape:path-effect
       effect="bspline"
       id="path-effect46-3"
       is_visible="true"
       lpeversion="1.3"
       weight="33.333333"
       steps="2"
       helper_size="0"
       apply_no_weight="true"
       apply_with_weight="true"
       only_selected="false"
       uniform="false" />
    <inkscape:path-effect
       effect="bspline"
       id="path-effect47"
       is_visible="true"
       lpeversion="1.3"
       weight="33.333333"
       steps="2"
       helper_size="0"
       apply_no_weight="true"
       apply_with_weight="true"
       only_selected="false"
       uniform="false" />
    <inkscape:path-effect
       effect="bspline"
       id="path-effect41"
       is_visible="true"
       lpeversion="1.3"
       weight="33.333333"
       steps="2"
       helper_size="0"
       apply_no_weight="true"
       apply_with_weight="true"
       only_selected="false"
       uniform="false" />
    <inkscape:path-effect
       effect="bspline"
       id="path-effect5"
       is_visible="true"
       lpeversion="1.3"
       weight="33.333333"
       steps="2"
       helper_size="0"
       apply_no_weight="true"
       apply_with_weight="true"
       only_selected="false"
       uniform="false" />
    <inkscape:path-effect
       effect="bspline"
       id="path-effect7"
       is_visible="true"
       lpeversion="1.3"
       weight="33.333333"
       steps="2"
       helper_size="0"
       apply_no_weight="true"
       apply_with_weight="true"
       only_selected="false"
       uniform="false" />
    <inkscape:path-effect
       effect="bspline"
       id="path-effect9"
       is_visible="true"
       lpeversion="1.3"
       weight="33.333333"
       steps="2"
       helper_size="0"
       apply_no_weight="true"
       apply_with_weight="true"
       only_selected="false"
       uniform="false" />
    <inkscape:path-effect
       effect="bspline"
       id="path-effect35"
       is_visible="true"
       lpeversion="1.3"
       weight="33.333333"
       steps="2"
       helper_size="0"
       apply_no_weight="true"
       apply_with_weight="true"
       only_selected="false"
       uniform="false" />
    <inkscape:path-effect
       effect="bspline"
       id="path-effect36"
       is_visible="true"
       lpeversion="1.3"
       weight="33.333333"
       steps="2"
       helper_size="0"
       apply_no_weight="true"
       apply_with_weight="true"
       only_selected="false"
       uniform="false" />
    <inkscape:path-effect
       effect="bspline"
       id="path-effect37"
       is_visible="true"
       lpeversion="1.3"
       weight="33.333333"
       steps="2"
       helper_size="0"
       apply_no_weight="true"
       apply_with_weight="true"
       only_selected="false"
       uniform="false" />
    <inkscape:path-effect
       effect="bspline"
       id="path-effect12"
       is_visible="true"
       lpeversion="1.3"
       weight="33.333333"
       steps="2"
       helper_size="0"
       apply_no_weight="true"
       apply_with_weight="true"
       only_selected="false"
       uniform="false" />
    <inkscape:path-effect
       effect="bspline"
       id="path-effect11"
       is_visible="true"
       lpeversion="1.3"
       weight="33.333333"
       steps="2"
       helper_size="0"
       apply_no_weight="true"
       apply_with_weight="true"
       only_selected="false"
       uniform="false" />
    <inkscape:path-effect
       effect="bspline"
       id="path-effect10"
       is_visible="true"
       lpeversion="1.3"
       weight="33.333333"
       steps="2"
       helper_size="0"
       apply_no_weight="true"
       apply_with_weight="true"
       only_selected="false"
       uniform="false" />
  </defs>
  <g
     inkscape:label="Layer 1"
     inkscape:groupmode="layer"
     id="layer1">
    <path
       style="fill:#00d400;stroke:#00d400;stroke-width:0.0499999;stroke-dasharray:none;stroke-opacity:1;marker-mid:url(#ArrowWideRounded)"
       d="m 98.114724,125.94176 v 1.51196"
       id="path15"
       sodipodi:nodetypes="cc" />
    <path
       style="fill:#00d400;stroke:#00d400;stroke-width:0.0499999;stroke-dasharray:none;stroke-opacity:1"
       d="m 106.05223,125.94176 v 1.51196"
       id="path22"
       sodipodi:nodetypes="cc" />
    <path
       style="fill:#00d400;stroke:#00d400;stroke-width:0.0499999;stroke-dasharray:none;stroke-opacity:1"
       d="m 108.1689,125.41268 v 2.04104"
       id="path23"
       sodipodi:nodetypes="cc" />
    <path
       style="fill:#00d400;stroke:#00d400;stroke-width:0.0499999;stroke-dasharray:none;stroke-opacity:1"
       d="m 102.34806,125.94176 v 1.51196"
       id="path32"
       sodipodi:nodetypes="cc" />
    <path
       style="fill:none;stroke:#00d400;stroke-width:0.0499999;stroke-dasharray:none;stroke-dashoffset:0;stroke-opacity:1"
       d="m 36.630043,63.075179 c 0,0.367765 0,0.735525 0.617374,0.919412 0.617375,0.183887 1.852051,0.183887 2.469423,10e-7 0.617372,-0.183886 0.617372,-0.551644 0.617372,-0.919413"
       id="path45"
       sodipodi:nodetypes="cccc"
       transform="rotate(180,71.341137,94.603647)"
       inkscape:original-d="m 36.630043,63.075179 c 0,0.367765 0,0.735525 0,1.103299 1.234749,0 2.469425,0 3.704169,0 0,-0.367772 0,-0.73553 0,-1.103299"
       inkscape:path-effect="#path-effect46" />
    <path
       style="fill:none;stroke:#00d400;stroke-width:0.0499999;stroke-dasharray:none;stroke-dashoffset:0;stroke-opacity:1"
       d="m 104.05865,124.88258 0.25743,0.19912 -0.25743,0.19912"
       id="path52"
       sodipodi:nodetypes="ccc" />
    <path
       style="fill:none;stroke:#00d400;stroke-width:0.0499999;stroke-dasharray:none;stroke-dashoffset:0;stroke-opacity:1"
       d="m 95.646017,114.00425 -0.25743,-0.19912 0.25743,-0.19912"
       id="path53"
       sodipodi:nodetypes="ccc" />
    <path
       style="fill:#00d400;stroke:#00d400;stroke-width:0.0499999;stroke-dasharray:none;stroke-opacity:1;marker-mid:url(#ArrowWideRounded-2)"
       d="m 90.177228,120.3856 v 7.06814"
       id="path15-0"
       sodipodi:nodetypes="cc" />
    <path
       style="fill:#0000ff;stroke:#0000ff;stroke-width:0.0499999;stroke-dasharray:none;stroke-opacity:1"
       d="m 92.293896,124.95631 v 2.51246"
       id="path42-9"
       sodipodi:nodetypes="cc" />
    <g
       id="g1"
       transform="translate(0,-3.619544)">
      <path
         style="fill:none;stroke:#00d400;stroke-width:0.0499999;stroke-dasharray:none;stroke-dashoffset:0;stroke-opacity:1"
         d="m 36.630043,63.075179 c 0,0.367765 0,0.735525 0.617374,0.919412 0.617375,0.183887 1.852051,0.183887 2.469423,10e-7 0.617372,-0.183886 0.617372,-0.551644 0.617372,-0.919413"
         id="path45-7"
         sodipodi:nodetypes="cccc"
         transform="rotate(180,67.372383,96.323411)"
         inkscape:original-d="m 36.630043,63.075179 c 0,0.367765 0,0.735525 0,1.103299 1.234749,0 2.469425,0 3.704169,0 0,-0.367772 0,-0.73553 0,-1.103299"
         inkscape:path-effect="#path-effect46-3" />
      <path
         style="fill:none;stroke:#00d400;stroke-width:0.0499999;stroke-dasharray:none;stroke-dashoffset:0;stroke-opacity:1"
         d="m 96.121151,128.32226 0.25743,0.19912 -0.25743,0.19912"
         id="path52-0"
         sodipodi:nodetypes="ccc" />
    </g>
    <path
       style="fill:none;stroke:#00d400;stroke-width:0.0499999;stroke-dasharray:none;stroke-dashoffset:0;stroke-opacity:1"
       d="m 90.376347,119.80938 -0.199119,0.25743 -0.19912,-0.25743"
       id="path54-9"
       sodipodi:nodetypes="ccc" />
    <path
       style="fill:none;stroke:#00d400;stroke-width:0.0499999;stroke-dasharray:none"
       d="m 42.552234,159.54376 c 0,0.50396 0,1.00793 0,1.5119"
       id="path5"
       inkscape:path-effect="#path-effect5"
       inkscape:original-d="m 42.552234,159.54376 c 0,0.50396 0,1.00793 0,1.5119"
       sodipodi:nodetypes="cc"
       transform="translate(51.85833,-33.601919)" />
    <path
       style="fill:#00d400;stroke:#00d400;stroke-width:0.0499999;stroke-dasharray:none;stroke-opacity:1"
       d="m 106.05223,110.59583 v 1.79152"
       id="path12"
       sodipodi:nodetypes="cc" />
    <path
       style="fill:#00d400;stroke:#0000ff;stroke-width:0.0499999;stroke-dasharray:none;stroke-opacity:1"
       d="m 108.1689,110.59583 v 1.79152"
       id="path13"
       sodipodi:nodetypes="cc" />
    <path
       style="fill:#00d400;stroke:#00d400;stroke-width:0.0499999;stroke-dasharray:none;stroke-opacity:1"
       d="m 110.28557,110.59583 v 1.79152 15.06637"
       id="path14"
       sodipodi:nodetypes="ccc" />
    <path
       style="fill:#00d400;stroke:#00d400;stroke-width:0.0499999;stroke-dasharray:none;stroke-opacity:1"
       d="m 102.34806,110.59583 v 1.79152"
       id="path20"
       sodipodi:nodetypes="cc" />
    <path
       style="fill:none;stroke:#00d400;stroke-width:0.0499999;stroke-dasharray:none;stroke-opacity:1"
       d="m 98.114724,110.59583 v 1.79152"
       id="path26"
       sodipodi:nodetypes="cc" />
    <path
       style="fill:#00d400;stroke:#00d400;stroke-width:0.0499999;stroke-dasharray:none;stroke-opacity:1"
       d="m 100.23139,126.47083 v 0 0.98289"
       id="path27"
       sodipodi:nodetypes="ccc" />
    <path
       style="fill:#00d400;stroke:#00d400;stroke-width:0.0499999;stroke-dasharray:none;stroke-opacity:1"
       d="m 90.177219,110.59583 v 9.78977"
       id="path31"
       sodipodi:nodetypes="cc" />
    <path
       style="fill:none;stroke:#00d400;stroke-width:0.0499999;stroke-dasharray:none;stroke-opacity:1"
       d="m 92.293887,110.59583 v 1.79152"
       id="path33"
       sodipodi:nodetypes="cc" />
    <rect
       style="fill:#ffffff;stroke:#ffffff;stroke-width:0.00572107;stroke-dasharray:none"
       id="rect39"
       width="0.81179202"
       height="0.84667885"
       x="105.45717"
       y="115.07734" />
    <rect
       style="fill:#ffffff;stroke:#ffffff;stroke-width:0.00571101;stroke-dasharray:none"
       id="rect49"
       width="0.88157606"
       height="0.77691501"
       x="102.00336"
       y="116.57748" />
    <rect
       style="display:inline;fill:#ffffff;stroke:#00d400;stroke-width:0.0514208;stroke-dasharray:none;stroke-opacity:1"
       id="rect53"
       width="1.9296052"
       height="1.0258979"
       x="105.08743"
       y="111.94491" />
    <path
       style="fill:none;stroke:#00d400;stroke-width:0.0499999"
       d="m 100.23139,111.87693 c 0,1.03977 0,2.07952 -0.984211,2.59942 -0.984212,0.5199 -2.952527,0.5199 -3.936737,1.21618 -0.984209,0.69628 -0.984209,2.08878 -0.984209,3.56954 0,1.48077 0,3.04965 0.984212,3.83413 0.984211,0.78449 2.952522,0.78449 3.936734,1.2217 0.984211,0.43722 0.984211,1.31162 0.984211,2.18603"
       id="path21"
       inkscape:path-effect="#path-effect21"
       inkscape:original-d="m 100.23139,111.87693 c 0,1.03977 0,2.07952 0,3.11932 -1.968423,0 -3.936738,0 -5.905157,0 0,1.39256 0,2.78506 0,4.17763 0,1.56896 0,3.13784 0,4.70681 1.968423,0 3.936734,0 5.905157,0 0,0.87443 0,1.74883 0,2.62324"
       sodipodi:nodetypes="ccccccc" />
    <rect
       style="display:inline;fill:#ffffff;stroke:#0000ff;stroke-width:0.0514208;stroke-dasharray:none;stroke-opacity:1"
       id="rect54"
       width="1.9296052"
       height="1.0258979"
       x="107.20409"
       y="111.94491" />
    <rect
       style="fill:#ffffff;stroke:#ffffff;stroke-width:0.00889543;stroke-dasharray:none"
       id="rect51"
       width="1.2697026"
       height="1.3086989"
       x="95.257362"
       y="114.67014" />
    <path
       style="fill:none;stroke:#00d400;stroke-width:0.0499999"
       d="m 92.293887,112.38735 c 0,0.48857 0,0.97714 0.970159,1.22143 0.970159,0.24429 2.910346,0.24429 3.880512,0 0.970166,-0.2443 0.970166,-0.73285 0.970166,-1.22143"
       id="path1"
       inkscape:path-effect="#path-effect2"
       inkscape:original-d="m 92.293887,112.38735 c 0,0.48857 0,0.97714 0,1.46572 1.940318,0 3.880505,0 5.820837,0 0,-0.48859 0,-0.97714 0,-1.46572"
       sodipodi:nodetypes="cccc" />
    <rect
       style="fill:#ffffff;stroke:#ffffff;stroke-width:0.0499999"
       id="rect9"
       width="0.76180339"
       height="0.65297484"
       x="94.028267"
       y="113.4361" />
    <path
       style="fill:#00d400;stroke:#00d400;stroke-width:0.0499999;stroke-dasharray:none;stroke-opacity:1"
       d="m 94.410555,110.59583 v 3.96894"
       id="path30"
       sodipodi:nodetypes="cc" />
    <path
       style="fill:none;stroke:#00d400;stroke-width:0.0499999;stroke-dasharray:none;stroke-dashoffset:0;stroke-opacity:1"
       d="m 100.41331,115.65861 -0.25743,-0.19912 0.25743,-0.19912"
       id="path9"
       sodipodi:nodetypes="ccc" />
    <path
       style="fill:none;stroke:#00d400;stroke-width:0.0499999"
       d="m 102.34806,112.38735 c 0,2.1709 0,4.34174 0.97016,5.42721 0.97016,1.08546 2.91036,1.08546 3.88052,2.17092 0.97016,1.08547 0.97016,3.25631 0.97016,5.4272"
       id="path11"
       inkscape:path-effect="#path-effect13"
       inkscape:original-d="m 102.34806,112.38735 c 0,2.1709 0,4.34174 0,6.51267 1.94032,0 3.88052,0 5.82084,0 0,2.17093 0,4.34177 0,6.51266"
       sodipodi:nodetypes="cccc" />
    <rect
       style="fill:#ffffff;stroke:#ffffff;stroke-width:0.00571101;stroke-dasharray:none"
       id="rect13"
       width="0.88157606"
       height="0.77691501"
       x="102.01493"
       y="115.08605" />
    <path
       style="fill:none;stroke:#00d400;stroke-width:0.0499999"
       d="m 94.410555,114.56477 c 0,0.34657 0,0.69314 1.940318,0.83035 1.940319,0.13721 5.820737,0.065 7.761047,-0.10824 1.94031,-0.17329 1.94031,-0.4477 1.94031,-0.85261 0,-0.40492 0,-0.94033 0,-1.47575"
       id="path8"
       inkscape:path-effect="#path-effect8"
       inkscape:original-d="m 94.410555,114.56477 c 0,0.34657 0,0.69314 0,1.03972 3.880636,-0.0722 7.761055,-0.14433 11.641675,-0.21649 0,-0.27441 0,-0.54882 0,-0.82323 0,-0.53542 0,-1.07083 0,-1.60625"
       sodipodi:nodetypes="ccccc" />
    <path
       style="fill:none;stroke:#00d400;stroke-width:0.0499999;stroke-dasharray:none;stroke-opacity:1"
       d="m 100.23139,110.59583 v 1.26236 0"
       id="path16"
       sodipodi:nodetypes="ccc" />
    <rect
       style="fill:#ffffff;stroke:#ffffff;stroke-width:0.00769579;stroke-dasharray:none"
       id="rect18"
       width="1.0764748"
       height="1.1553409"
       x="94.461258"
       y="122.40521" />
    <path
       style="fill:none;stroke:#0000ff;stroke-width:0.0499999"
       d="m 98.610715,121.25385 c 0,0.46322 0,0.92642 -1.052824,1.20799 -1.052823,0.28157 -3.158337,0.38148 -4.211166,0.76695 -1.052829,0.38548 -1.052829,1.05649 -1.052829,1.72752"
       id="path18"
       sodipodi:nodetypes="cccc"
       inkscape:original-d="m 98.610715,121.25385 c 0,0.46322 0,0.92642 0,1.38965 -2.105648,0.0999 -4.211161,0.19982 -6.316819,0.29973 0,0.67104 0,1.34205 0,2.01308"
       inkscape:path-effect="#path-effect18" />
    <rect
       style="fill:#ffffff;stroke:#ffffff;stroke-width:0.00571101;stroke-dasharray:none"
       id="rect19"
       width="0.88157606"
       height="0.77691501"
       x="102.93703"
       y="117.58419" />
    <path
       style="fill:none;stroke:#0000ff;stroke-width:0.0499999"
       d="m 98.583465,120.4364 c 0,-0.81743 0,-1.63487 1.597605,-2.04359 1.5976,-0.40873 4.79261,-0.40873 6.39022,-1.24435 1.59761,-0.83563 1.59761,-2.5068 1.59761,-4.17802"
       id="path19"
       inkscape:path-effect="#path-effect19"
       inkscape:original-d="m 98.583465,120.4364 c 0,-0.81743 0,-1.63487 0,-2.45232 3.195205,0 6.390215,0 9.585435,0 0,-1.67125 0,-3.34242 0,-5.01364"
       sodipodi:nodetypes="cccc" />
    <rect
       style="display:inline;fill:#ffffff;stroke:#0000ff;stroke-width:0.0621346;stroke-dasharray:none;stroke-opacity:1"
       id="rect41-5"
       width="6.6178265"
       height="1.1986667"
       x="95.355675"
       y="120.10902" />
    <g
       transform="matrix(0.0705556,0,0,0.0705556,95.75362,120.33166)"
       ns8:version="1.10.2"
       ns8:texconverter="pdflatex"
       ns8:pdfconverter="inkscape"
       ns8:text="$\\varphi(h)\\eta(ak^{-1}h^{-1})^{-1}$"
       ns8:preamble="/Users/abigailwatkins/Library/Application Support/org.inkscape.Inkscape/config/inkscape/extensions/textext/default_packages.tex"
       ns8:scale="0.2"
       ns8:alignment="middle center"
       ns8:stroke-to-path="0"
       ns8:inkscapeversion="1.4"
       ns8:jacobian_sqrt="0.0705556"
       id="g18">
      <defs
         id="id-b3e39670-429d-4759-bb1b-2eba7d1b5005">
        <g
           id="id-f96507ed-1118-41c9-ba28-93e712a16ef9">
          <g
             id="id-eedbd881-eb0e-439e-8640-2513f49056b7">
            <path
               d="M 1.6875,1.6875 C 1.65625,1.828125 1.640625,1.84375 1.640625,1.890625 c 0,0.21875 0.1875,0.28125 0.296875,0.28125 0.046875,0 0.265625,-0.03125 0.359375,-0.265625 C 2.328125,1.828125 2.375,1.5 2.65625,0.09375 c 0.078125,0 0.15625,0.015625 0.328125,0.015625 1.65625,0 3.1875,-1.5625 3.1875,-3.140625 0,-0.78125 -0.390625,-1.375 -1.140625,-1.375 -1.4375,0 -2.046875,1.9375 -2.640625,3.875 C 1.3125,-0.734375 0.75,-1.28125 0.75,-2 c 0,-0.28125 0.234375,-1.375 0.828125,-2.0625 0.09375,-0.09375 0.09375,-0.109375 0.09375,-0.140625 0,-0.03125 -0.03125,-0.09375 -0.125,-0.09375 -0.28125,0 -1.046875,1.453125 -1.046875,2.40625 0,0.9375 0.65625,1.65625 1.71875,1.90625 z m 1.390625,-2.15625 c -0.09375,0 -0.109375,0 -0.1875,-0.015625 -0.125,0 -0.125,0 -0.125,-0.03125 0,-0.015625 0.171875,-0.9375 0.1875,-1.078125 0.3125,-1.28125 1.09375,-2.234375 1.984375,-2.234375 0.6875,0 0.953125,0.53125 0.953125,1.015625 0,1.125 -1.28125,2.34375 -2.8125,2.34375 z m 0,0"
               id="id-88a0dde9-37fb-4cab-a4dd-374eb7b9331f" />
          </g>
          <g
             id="id-e9dd3012-9683-434e-9572-2e6bf307a84c">
            <path
               d="m 2.859375,-6.8125 c 0,0 0,-0.109375 -0.125,-0.109375 -0.234375,0 -0.953125,0.078125 -1.21875,0.109375 -0.078125,0 -0.1875,0.015625 -0.1875,0.1875 0,0.125 0.09375,0.125 0.234375,0.125 0.484375,0 0.5,0.0625 0.5,0.171875 L 2.03125,-6.125 0.59375,-0.390625 c -0.046875,0.140625 -0.046875,0.15625 -0.046875,0.21875 0,0.234375 0.203125,0.28125 0.296875,0.28125 0.15625,0 0.3125,-0.125 0.359375,-0.265625 l 0.1875,-0.75 0.21875,-0.890625 C 1.671875,-2.03125 1.734375,-2.25 1.78125,-2.46875 1.796875,-2.53125 1.890625,-2.859375 1.890625,-2.921875 1.921875,-3.015625 2.234375,-3.5625 2.578125,-3.84375 2.796875,-4 3.09375,-4.1875 3.53125,-4.1875 c 0.421875,0 0.53125,0.34375 0.53125,0.703125 0,0.53125 -0.375,1.625 -0.609375,2.234375 C 3.375,-1.03125 3.3125,-0.90625 3.3125,-0.703125 c 0,0.46875 0.359375,0.8125 0.828125,0.8125 0.9375,0 1.296875,-1.453125 1.296875,-1.53125 0,-0.109375 -0.078125,-0.109375 -0.109375,-0.109375 -0.109375,0 -0.109375,0.03125 -0.15625,0.1875 -0.140625,0.53125 -0.46875,1.234375 -1.015625,1.234375 -0.171875,0 -0.234375,-0.09375 -0.234375,-0.328125 0,-0.25 0.078125,-0.484375 0.171875,-0.703125 0.15625,-0.4375 0.609375,-1.625 0.609375,-2.203125 0,-0.640625 -0.390625,-1.0625 -1.140625,-1.0625 -0.625,0 -1.109375,0.3125 -1.484375,0.765625 z m 0,0"
               id="id-6dbf9c96-22d8-447b-ad97-e8b16e2bee25" />
          </g>
          <g
             id="id-65b5424c-8ea3-47fa-89fd-f1acffedff08">
            <path
               d="M 4.859375,-2.765625 C 4.921875,-2.9375 4.9375,-3.078125 4.9375,-3.34375 c 0,-0.640625 -0.390625,-1.0625 -1.140625,-1.0625 -0.78125,0 -1.296875,0.515625 -1.546875,0.875 -0.046875,-0.578125 -0.46875,-0.875 -0.921875,-0.875 -0.453125,0 -0.640625,0.390625 -0.734375,0.5625 C 0.421875,-3.5 0.296875,-2.90625 0.296875,-2.875 c 0,0.109375 0.09375,0.109375 0.109375,0.109375 0.109375,0 0.109375,-0.015625 0.171875,-0.234375 0.171875,-0.703125 0.375,-1.1875 0.734375,-1.1875 0.15625,0 0.296875,0.078125 0.296875,0.453125 0,0.21875 -0.03125,0.328125 -0.15625,0.84375 L 0.875,-0.59375 c -0.03125,0.15625 -0.09375,0.390625 -0.09375,0.4375 0,0.171875 0.140625,0.265625 0.296875,0.265625 0.125,0 0.296875,-0.078125 0.375,-0.28125 0,-0.015625 0.125,-0.484375 0.1875,-0.734375 l 0.21875,-0.890625 C 1.90625,-2.03125 1.96875,-2.25 2.03125,-2.46875 2.046875,-2.53125 2.125,-2.859375 2.140625,-2.921875 2.15625,-3.015625 2.46875,-3.5625 2.8125,-3.84375 3.03125,-4 3.34375,-4.1875 3.765625,-4.1875 c 0.4375,0 0.546875,0.34375 0.546875,0.703125 0,0.046875 0,0.21875 -0.109375,0.625 l -1.125,4.578125 c -0.03125,0.125 -0.03125,0.140625 -0.03125,0.171875 0,0.140625 0.109375,0.265625 0.265625,0.265625 0.3125,0 0.390625,-0.296875 0.421875,-0.40625 z m 0,0"
               id="id-83045832-f72c-47fa-a4b9-bb2776a3dd53" />
          </g>
          <g
             id="id-02208091-6a37-4619-9bc1-d34f36f86e52">
            <path
               d="M 3.71875,-3.765625 C 3.53125,-4.140625 3.25,-4.40625 2.796875,-4.40625 c -1.15625,0 -2.390625,1.46875 -2.390625,2.921875 0,0.9375 0.546875,1.59375 1.3125,1.59375 0.203125,0 0.703125,-0.046875 1.296875,-0.75 0.078125,0.421875 0.4375,0.75 0.90625,0.75 0.359375,0 0.578125,-0.234375 0.75,-0.546875 0.15625,-0.359375 0.296875,-0.96875 0.296875,-0.984375 0,-0.109375 -0.09375,-0.109375 -0.125,-0.109375 -0.09375,0 -0.109375,0.046875 -0.140625,0.1875 -0.171875,0.640625 -0.34375,1.234375 -0.75,1.234375 -0.28125,0 -0.296875,-0.265625 -0.296875,-0.453125 0,-0.21875 0.015625,-0.3125 0.125,-0.75 C 3.890625,-1.71875 3.90625,-1.828125 4,-2.203125 L 4.359375,-3.59375 c 0.0625,-0.28125 0.0625,-0.296875 0.0625,-0.34375 0,-0.171875 -0.109375,-0.265625 -0.28125,-0.265625 -0.25,0 -0.390625,0.21875 -0.421875,0.4375 z M 3.078125,-1.1875 C 3.015625,-1 3.015625,-0.984375 2.875,-0.8125 2.4375,-0.265625 2.03125,-0.109375 1.75,-0.109375 c -0.5,0 -0.640625,-0.546875 -0.640625,-0.9375 0,-0.5 0.3125,-1.71875 0.546875,-2.1875 0.3125,-0.578125 0.75,-0.953125 1.15625,-0.953125 0.640625,0 0.78125,0.8125 0.78125,0.875 0,0.0625 -0.015625,0.125 -0.03125,0.171875 z m 0,0"
               id="id-fe336d9e-9f22-40e8-8782-bd51b7882a64" />
          </g>
          <g
             id="id-9dd7d4f0-8ea3-4ef2-88c6-fbffae5cc6ee">
            <path
               d="m 2.859375,-6.8125 c 0,0 0,-0.109375 -0.125,-0.109375 -0.234375,0 -0.953125,0.078125 -1.21875,0.109375 -0.078125,0 -0.1875,0.015625 -0.1875,0.1875 0,0.125 0.09375,0.125 0.234375,0.125 0.484375,0 0.5,0.0625 0.5,0.171875 L 2.03125,-6.125 0.59375,-0.390625 c -0.046875,0.140625 -0.046875,0.15625 -0.046875,0.21875 0,0.234375 0.203125,0.28125 0.296875,0.28125 0.125,0 0.265625,-0.09375 0.328125,-0.203125 0.046875,-0.09375 0.5,-1.9375 0.5625,-2.1875 0.34375,0.03125 1.15625,0.1875 1.15625,0.84375 0,0.078125 0,0.109375 -0.03125,0.21875 -0.015625,0.109375 -0.03125,0.234375 -0.03125,0.34375 0,0.578125 0.390625,0.984375 0.90625,0.984375 0.296875,0 0.578125,-0.15625 0.796875,-0.53125 0.25,-0.4375 0.359375,-0.984375 0.359375,-1 0,-0.109375 -0.09375,-0.109375 -0.125,-0.109375 -0.09375,0 -0.109375,0.046875 -0.140625,0.1875 -0.203125,0.71875 -0.421875,1.234375 -0.859375,1.234375 -0.203125,0 -0.328125,-0.109375 -0.328125,-0.46875 0,-0.171875 0.046875,-0.40625 0.078125,-0.5625 C 3.5625,-1.3125 3.5625,-1.34375 3.5625,-1.453125 3.5625,-2.09375 2.9375,-2.375 2.078125,-2.5 2.390625,-2.671875 2.71875,-2.984375 2.9375,-3.234375 3.421875,-3.765625 3.875,-4.1875 4.359375,-4.1875 c 0.0625,0 0.078125,0 0.09375,0.015625 0.125,0.015625 0.125,0.015625 0.21875,0.078125 0.015625,0 0.015625,0.015625 0.03125,0.03125 -0.46875,0.03125 -0.5625,0.421875 -0.5625,0.546875 0,0.15625 0.109375,0.34375 0.375,0.34375 0.265625,0 0.546875,-0.21875 0.546875,-0.609375 0,-0.296875 -0.234375,-0.625 -0.671875,-0.625 -0.28125,0 -0.734375,0.078125 -1.453125,0.875 -0.34375,0.375 -0.734375,0.78125 -1.109375,0.921875 z m 0,0"
               id="id-6a752ce1-55e6-455b-814b-0cbb294051e9" />
          </g>
          <g
             id="id-db261ce0-c617-41cf-badc-31ac2880d304">
            <path
               d="m 3.296875,2.390625 c 0,-0.03125 0,-0.046875 -0.171875,-0.21875 C 1.890625,0.921875 1.5625,-0.96875 1.5625,-2.5 c 0,-1.734375 0.375,-3.46875 1.609375,-4.703125 0.125,-0.125 0.125,-0.140625 0.125,-0.171875 0,-0.078125 -0.03125,-0.109375 -0.09375,-0.109375 -0.109375,0 -1,0.6875 -1.59375,1.953125 -0.5,1.09375 -0.625,2.203125 -0.625,3.03125 0,0.78125 0.109375,1.984375 0.65625,3.125 C 2.25,1.84375 3.09375,2.5 3.203125,2.5 c 0.0625,0 0.09375,-0.03125 0.09375,-0.109375 z m 0,0"
               id="id-f9347303-ecc7-4e57-b20c-fae809ba04c2" />
          </g>
          <g
             id="id-b81c5362-448e-41e4-bc25-5318071695a4">
            <path
               d="m 2.875,-2.5 c 0,-0.765625 -0.109375,-1.96875 -0.65625,-3.109375 -0.59375,-1.21875 -1.453125,-1.875 -1.546875,-1.875 -0.0625,0 -0.109375,0.046875 -0.109375,0.109375 0,0.03125 0,0.046875 0.1875,0.234375 0.984375,0.984375 1.546875,2.5625 1.546875,4.640625 0,1.71875 -0.359375,3.46875 -1.59375,4.71875 C 0.5625,2.34375 0.5625,2.359375 0.5625,2.390625 0.5625,2.453125 0.609375,2.5 0.671875,2.5 0.765625,2.5 1.671875,1.8125 2.25,0.546875 2.765625,-0.546875 2.875,-1.65625 2.875,-2.5 Z m 0,0"
               id="id-a3a03607-af20-42a8-a977-08e804493f90" />
          </g>
          <g
             id="id-7a033373-5a11-4cdd-bcd8-2e774ad8062a">
            <path
               d="m 5.1875,-1.578125 c 0.109375,0 0.28125,0 0.28125,-0.15625 0,-0.1875 -0.171875,-0.1875 -0.28125,-0.1875 H 1.03125 c -0.109375,0 -0.28125,0 -0.28125,0.171875 0,0.171875 0.15625,0.171875 0.28125,0.171875 z m 0,0"
               id="id-fdca485d-2829-4b8e-8a74-d66950a8edc6" />
          </g>
          <g
             id="id-81da4506-3944-48d2-bf4b-eca9f852b807">
            <path
               d="m 2.328125,-4.4375 c 0,-0.1875 0,-0.1875 -0.203125,-0.1875 -0.453125,0.4375 -1.078125,0.4375 -1.359375,0.4375 v 0.25 c 0.15625,0 0.625,0 1,-0.1875 v 3.546875 c 0,0.234375 0,0.328125 -0.6875,0.328125 H 0.8125 V 0 c 0.125,0 0.984375,-0.03125 1.234375,-0.03125 0.21875,0 1.09375,0.03125 1.25,0.03125 V -0.25 H 3.03125 c -0.703125,0 -0.703125,-0.09375 -0.703125,-0.328125 z m 0,0"
               id="id-0c67c3d6-d707-454b-af46-35d23f911ada" />
          </g>
        </g>
      </defs>
      <g
         fill="#000000"
         fill-opacity="1"
         id="id-839445ad-a8a8-49ea-ad94-e78c39d671ae"
         transform="translate(-149.212,-126.524)">
        <g
           transform="translate(148.712,134.765)"
           id="g2">
          <path
             d="M 1.6875,1.6875 C 1.65625,1.828125 1.640625,1.84375 1.640625,1.890625 c 0,0.21875 0.1875,0.28125 0.296875,0.28125 0.046875,0 0.265625,-0.03125 0.359375,-0.265625 C 2.328125,1.828125 2.375,1.5 2.65625,0.09375 c 0.078125,0 0.15625,0.015625 0.328125,0.015625 1.65625,0 3.1875,-1.5625 3.1875,-3.140625 0,-0.78125 -0.390625,-1.375 -1.140625,-1.375 -1.4375,0 -2.046875,1.9375 -2.640625,3.875 C 1.3125,-0.734375 0.75,-1.28125 0.75,-2 c 0,-0.28125 0.234375,-1.375 0.828125,-2.0625 0.09375,-0.09375 0.09375,-0.109375 0.09375,-0.140625 0,-0.03125 -0.03125,-0.09375 -0.125,-0.09375 -0.28125,0 -1.046875,1.453125 -1.046875,2.40625 0,0.9375 0.65625,1.65625 1.71875,1.90625 z m 1.390625,-2.15625 c -0.09375,0 -0.109375,0 -0.1875,-0.015625 -0.125,0 -0.125,0 -0.125,-0.03125 0,-0.015625 0.171875,-0.9375 0.1875,-1.078125 0.3125,-1.28125 1.09375,-2.234375 1.984375,-2.234375 0.6875,0 0.953125,0.53125 0.953125,1.015625 0,1.125 -1.28125,2.34375 -2.8125,2.34375 z m 0,0"
             id="id-eac8fa69-0a51-44f6-8e1c-861d3baebe45" />
        </g>
      </g>
      <g
         fill="#000000"
         fill-opacity="1"
         id="id-617fd8a6-97e5-4d89-9bcf-57f87bf45db0"
         transform="translate(-149.212,-126.524)">
        <g
           transform="translate(155.23,134.765)"
           id="g3">
          <path
             d="m 3.296875,2.390625 c 0,-0.03125 0,-0.046875 -0.171875,-0.21875 C 1.890625,0.921875 1.5625,-0.96875 1.5625,-2.5 c 0,-1.734375 0.375,-3.46875 1.609375,-4.703125 0.125,-0.125 0.125,-0.140625 0.125,-0.171875 0,-0.078125 -0.03125,-0.109375 -0.09375,-0.109375 -0.109375,0 -1,0.6875 -1.59375,1.953125 -0.5,1.09375 -0.625,2.203125 -0.625,3.03125 0,0.78125 0.109375,1.984375 0.65625,3.125 C 2.25,1.84375 3.09375,2.5 3.203125,2.5 c 0.0625,0 0.09375,-0.03125 0.09375,-0.109375 z m 0,0"
             id="id-4115a871-f51f-45b3-8e86-9ee1ddf9eed9" />
        </g>
      </g>
      <g
         fill="#000000"
         fill-opacity="1"
         id="id-e6cbc932-98d1-4f42-9c6c-5430f0b4561b"
         transform="translate(-149.212,-126.524)">
        <g
           transform="translate(159.104,134.765)"
           id="g4">
          <path
             d="m 2.859375,-6.8125 c 0,0 0,-0.109375 -0.125,-0.109375 -0.234375,0 -0.953125,0.078125 -1.21875,0.109375 -0.078125,0 -0.1875,0.015625 -0.1875,0.1875 0,0.125 0.09375,0.125 0.234375,0.125 0.484375,0 0.5,0.0625 0.5,0.171875 L 2.03125,-6.125 0.59375,-0.390625 c -0.046875,0.140625 -0.046875,0.15625 -0.046875,0.21875 0,0.234375 0.203125,0.28125 0.296875,0.28125 0.15625,0 0.3125,-0.125 0.359375,-0.265625 l 0.1875,-0.75 0.21875,-0.890625 C 1.671875,-2.03125 1.734375,-2.25 1.78125,-2.46875 1.796875,-2.53125 1.890625,-2.859375 1.890625,-2.921875 1.921875,-3.015625 2.234375,-3.5625 2.578125,-3.84375 2.796875,-4 3.09375,-4.1875 3.53125,-4.1875 c 0.421875,0 0.53125,0.34375 0.53125,0.703125 0,0.53125 -0.375,1.625 -0.609375,2.234375 C 3.375,-1.03125 3.3125,-0.90625 3.3125,-0.703125 c 0,0.46875 0.359375,0.8125 0.828125,0.8125 0.9375,0 1.296875,-1.453125 1.296875,-1.53125 0,-0.109375 -0.078125,-0.109375 -0.109375,-0.109375 -0.109375,0 -0.109375,0.03125 -0.15625,0.1875 -0.140625,0.53125 -0.46875,1.234375 -1.015625,1.234375 -0.171875,0 -0.234375,-0.09375 -0.234375,-0.328125 0,-0.25 0.078125,-0.484375 0.171875,-0.703125 0.15625,-0.4375 0.609375,-1.625 0.609375,-2.203125 0,-0.640625 -0.390625,-1.0625 -1.140625,-1.0625 -0.625,0 -1.109375,0.3125 -1.484375,0.765625 z m 0,0"
             id="id-1e7c2829-21df-432d-bf5e-8a90893bc0f0" />
        </g>
      </g>
      <g
         fill="#000000"
         fill-opacity="1"
         id="id-f9a2adeb-4fc8-4d49-a971-40cfcd6a0daf"
         transform="translate(-149.212,-126.524)">
        <g
           transform="translate(164.844,134.765)"
           id="g5">
          <path
             d="m 2.875,-2.5 c 0,-0.765625 -0.109375,-1.96875 -0.65625,-3.109375 -0.59375,-1.21875 -1.453125,-1.875 -1.546875,-1.875 -0.0625,0 -0.109375,0.046875 -0.109375,0.109375 0,0.03125 0,0.046875 0.1875,0.234375 0.984375,0.984375 1.546875,2.5625 1.546875,4.640625 0,1.71875 -0.359375,3.46875 -1.59375,4.71875 C 0.5625,2.34375 0.5625,2.359375 0.5625,2.390625 0.5625,2.453125 0.609375,2.5 0.671875,2.5 0.765625,2.5 1.671875,1.8125 2.25,0.546875 2.765625,-0.546875 2.875,-1.65625 2.875,-2.5 Z m 0,0"
             id="id-8e70377f-18c9-4e25-996b-21c1c30b3745" />
        </g>
      </g>
      <g
         fill="#000000"
         fill-opacity="1"
         id="id-05d4ea8b-408e-4149-847e-01caff7d6a0b"
         transform="translate(-149.212,-126.524)">
        <g
           transform="translate(168.718,134.765)"
           id="g6">
          <path
             d="M 4.859375,-2.765625 C 4.921875,-2.9375 4.9375,-3.078125 4.9375,-3.34375 c 0,-0.640625 -0.390625,-1.0625 -1.140625,-1.0625 -0.78125,0 -1.296875,0.515625 -1.546875,0.875 -0.046875,-0.578125 -0.46875,-0.875 -0.921875,-0.875 -0.453125,0 -0.640625,0.390625 -0.734375,0.5625 C 0.421875,-3.5 0.296875,-2.90625 0.296875,-2.875 c 0,0.109375 0.09375,0.109375 0.109375,0.109375 0.109375,0 0.109375,-0.015625 0.171875,-0.234375 0.171875,-0.703125 0.375,-1.1875 0.734375,-1.1875 0.15625,0 0.296875,0.078125 0.296875,0.453125 0,0.21875 -0.03125,0.328125 -0.15625,0.84375 L 0.875,-0.59375 c -0.03125,0.15625 -0.09375,0.390625 -0.09375,0.4375 0,0.171875 0.140625,0.265625 0.296875,0.265625 0.125,0 0.296875,-0.078125 0.375,-0.28125 0,-0.015625 0.125,-0.484375 0.1875,-0.734375 l 0.21875,-0.890625 C 1.90625,-2.03125 1.96875,-2.25 2.03125,-2.46875 2.046875,-2.53125 2.125,-2.859375 2.140625,-2.921875 2.15625,-3.015625 2.46875,-3.5625 2.8125,-3.84375 3.03125,-4 3.34375,-4.1875 3.765625,-4.1875 c 0.4375,0 0.546875,0.34375 0.546875,0.703125 0,0.046875 0,0.21875 -0.109375,0.625 l -1.125,4.578125 c -0.03125,0.125 -0.03125,0.140625 -0.03125,0.171875 0,0.140625 0.109375,0.265625 0.265625,0.265625 0.3125,0 0.390625,-0.296875 0.421875,-0.40625 z m 0,0"
             id="id-d5d989f4-a45f-4d2a-a3cf-330ee3ab87d5" />
        </g>
      </g>
      <g
         fill="#000000"
         fill-opacity="1"
         id="id-ded8cf3a-ea68-40d8-913b-b00d83073c02"
         transform="translate(-149.212,-126.524)">
        <g
           transform="translate(174.023,134.765)"
           id="g7">
          <path
             d="m 3.296875,2.390625 c 0,-0.03125 0,-0.046875 -0.171875,-0.21875 C 1.890625,0.921875 1.5625,-0.96875 1.5625,-2.5 c 0,-1.734375 0.375,-3.46875 1.609375,-4.703125 0.125,-0.125 0.125,-0.140625 0.125,-0.171875 0,-0.078125 -0.03125,-0.109375 -0.09375,-0.109375 -0.109375,0 -1,0.6875 -1.59375,1.953125 -0.5,1.09375 -0.625,2.203125 -0.625,3.03125 0,0.78125 0.109375,1.984375 0.65625,3.125 C 2.25,1.84375 3.09375,2.5 3.203125,2.5 c 0.0625,0 0.09375,-0.03125 0.09375,-0.109375 z m 0,0"
             id="id-1fac24f6-003f-4129-a450-c62ddcd17d39" />
        </g>
      </g>
      <g
         fill="#000000"
         fill-opacity="1"
         id="id-6c5fe3f6-647d-478f-ab88-8cd62ff69ecf"
         transform="translate(-149.212,-126.524)">
        <g
           transform="translate(177.897,134.765)"
           id="g8">
          <path
             d="M 3.71875,-3.765625 C 3.53125,-4.140625 3.25,-4.40625 2.796875,-4.40625 c -1.15625,0 -2.390625,1.46875 -2.390625,2.921875 0,0.9375 0.546875,1.59375 1.3125,1.59375 0.203125,0 0.703125,-0.046875 1.296875,-0.75 0.078125,0.421875 0.4375,0.75 0.90625,0.75 0.359375,0 0.578125,-0.234375 0.75,-0.546875 0.15625,-0.359375 0.296875,-0.96875 0.296875,-0.984375 0,-0.109375 -0.09375,-0.109375 -0.125,-0.109375 -0.09375,0 -0.109375,0.046875 -0.140625,0.1875 -0.171875,0.640625 -0.34375,1.234375 -0.75,1.234375 -0.28125,0 -0.296875,-0.265625 -0.296875,-0.453125 0,-0.21875 0.015625,-0.3125 0.125,-0.75 C 3.890625,-1.71875 3.90625,-1.828125 4,-2.203125 L 4.359375,-3.59375 c 0.0625,-0.28125 0.0625,-0.296875 0.0625,-0.34375 0,-0.171875 -0.109375,-0.265625 -0.28125,-0.265625 -0.25,0 -0.390625,0.21875 -0.421875,0.4375 z M 3.078125,-1.1875 C 3.015625,-1 3.015625,-0.984375 2.875,-0.8125 2.4375,-0.265625 2.03125,-0.109375 1.75,-0.109375 c -0.5,0 -0.640625,-0.546875 -0.640625,-0.9375 0,-0.5 0.3125,-1.71875 0.546875,-2.1875 0.3125,-0.578125 0.75,-0.953125 1.15625,-0.953125 0.640625,0 0.78125,0.8125 0.78125,0.875 0,0.0625 -0.015625,0.125 -0.03125,0.171875 z m 0,0"
             id="id-621f6af1-8078-4600-8846-2ad0b444bea3" />
        </g>
        <g
           transform="translate(183.163,134.765)"
           id="g9">
          <path
             d="m 2.859375,-6.8125 c 0,0 0,-0.109375 -0.125,-0.109375 -0.234375,0 -0.953125,0.078125 -1.21875,0.109375 -0.078125,0 -0.1875,0.015625 -0.1875,0.1875 0,0.125 0.09375,0.125 0.234375,0.125 0.484375,0 0.5,0.0625 0.5,0.171875 L 2.03125,-6.125 0.59375,-0.390625 c -0.046875,0.140625 -0.046875,0.15625 -0.046875,0.21875 0,0.234375 0.203125,0.28125 0.296875,0.28125 0.125,0 0.265625,-0.09375 0.328125,-0.203125 0.046875,-0.09375 0.5,-1.9375 0.5625,-2.1875 0.34375,0.03125 1.15625,0.1875 1.15625,0.84375 0,0.078125 0,0.109375 -0.03125,0.21875 -0.015625,0.109375 -0.03125,0.234375 -0.03125,0.34375 0,0.578125 0.390625,0.984375 0.90625,0.984375 0.296875,0 0.578125,-0.15625 0.796875,-0.53125 0.25,-0.4375 0.359375,-0.984375 0.359375,-1 0,-0.109375 -0.09375,-0.109375 -0.125,-0.109375 -0.09375,0 -0.109375,0.046875 -0.140625,0.1875 -0.203125,0.71875 -0.421875,1.234375 -0.859375,1.234375 -0.203125,0 -0.328125,-0.109375 -0.328125,-0.46875 0,-0.171875 0.046875,-0.40625 0.078125,-0.5625 C 3.5625,-1.3125 3.5625,-1.34375 3.5625,-1.453125 3.5625,-2.09375 2.9375,-2.375 2.078125,-2.5 2.390625,-2.671875 2.71875,-2.984375 2.9375,-3.234375 3.421875,-3.765625 3.875,-4.1875 4.359375,-4.1875 c 0.0625,0 0.078125,0 0.09375,0.015625 0.125,0.015625 0.125,0.015625 0.21875,0.078125 0.015625,0 0.015625,0.015625 0.03125,0.03125 -0.46875,0.03125 -0.5625,0.421875 -0.5625,0.546875 0,0.15625 0.109375,0.34375 0.375,0.34375 0.265625,0 0.546875,-0.21875 0.546875,-0.609375 0,-0.296875 -0.234375,-0.625 -0.671875,-0.625 -0.28125,0 -0.734375,0.078125 -1.453125,0.875 -0.34375,0.375 -0.734375,0.78125 -1.109375,0.921875 z m 0,0"
             id="id-33fd0396-d65f-4672-9bde-2d401241eefa" />
        </g>
      </g>
      <g
         fill="#000000"
         fill-opacity="1"
         id="id-40abc10f-d469-4607-b0f6-0f1af8c21931"
         transform="translate(-149.212,-126.524)">
        <g
           transform="translate(188.663,131.149)"
           id="g10">
          <path
             d="m 5.1875,-1.578125 c 0.109375,0 0.28125,0 0.28125,-0.15625 0,-0.1875 -0.171875,-0.1875 -0.28125,-0.1875 H 1.03125 c -0.109375,0 -0.28125,0 -0.28125,0.171875 0,0.171875 0.15625,0.171875 0.28125,0.171875 z m 0,0"
             id="id-ae40d67f-388a-43ac-9939-93cf045c69dc" />
        </g>
      </g>
      <g
         fill="#000000"
         fill-opacity="1"
         id="id-81070024-acf5-4940-9c35-c2a64d3ea940"
         transform="translate(-149.212,-126.524)">
        <g
           transform="translate(194.89,131.149)"
           id="g11">
          <path
             d="m 2.328125,-4.4375 c 0,-0.1875 0,-0.1875 -0.203125,-0.1875 -0.453125,0.4375 -1.078125,0.4375 -1.359375,0.4375 v 0.25 c 0.15625,0 0.625,0 1,-0.1875 v 3.546875 c 0,0.234375 0,0.328125 -0.6875,0.328125 H 0.8125 V 0 c 0.125,0 0.984375,-0.03125 1.234375,-0.03125 0.21875,0 1.09375,0.03125 1.25,0.03125 V -0.25 H 3.03125 c -0.703125,0 -0.703125,-0.09375 -0.703125,-0.328125 z m 0,0"
             id="id-d2377bb5-1b26-480c-9928-321eca20c6e4" />
        </g>
      </g>
      <g
         fill="#000000"
         fill-opacity="1"
         id="id-67d2dfbe-ccd0-4e98-8e31-a5d4667361b9"
         transform="translate(-149.212,-126.524)">
        <g
           transform="translate(199.359,134.765)"
           id="g12">
          <path
             d="m 2.859375,-6.8125 c 0,0 0,-0.109375 -0.125,-0.109375 -0.234375,0 -0.953125,0.078125 -1.21875,0.109375 -0.078125,0 -0.1875,0.015625 -0.1875,0.1875 0,0.125 0.09375,0.125 0.234375,0.125 0.484375,0 0.5,0.0625 0.5,0.171875 L 2.03125,-6.125 0.59375,-0.390625 c -0.046875,0.140625 -0.046875,0.15625 -0.046875,0.21875 0,0.234375 0.203125,0.28125 0.296875,0.28125 0.15625,0 0.3125,-0.125 0.359375,-0.265625 l 0.1875,-0.75 0.21875,-0.890625 C 1.671875,-2.03125 1.734375,-2.25 1.78125,-2.46875 1.796875,-2.53125 1.890625,-2.859375 1.890625,-2.921875 1.921875,-3.015625 2.234375,-3.5625 2.578125,-3.84375 2.796875,-4 3.09375,-4.1875 3.53125,-4.1875 c 0.421875,0 0.53125,0.34375 0.53125,0.703125 0,0.53125 -0.375,1.625 -0.609375,2.234375 C 3.375,-1.03125 3.3125,-0.90625 3.3125,-0.703125 c 0,0.46875 0.359375,0.8125 0.828125,0.8125 0.9375,0 1.296875,-1.453125 1.296875,-1.53125 0,-0.109375 -0.078125,-0.109375 -0.109375,-0.109375 -0.109375,0 -0.109375,0.03125 -0.15625,0.1875 -0.140625,0.53125 -0.46875,1.234375 -1.015625,1.234375 -0.171875,0 -0.234375,-0.09375 -0.234375,-0.328125 0,-0.25 0.078125,-0.484375 0.171875,-0.703125 0.15625,-0.4375 0.609375,-1.625 0.609375,-2.203125 0,-0.640625 -0.390625,-1.0625 -1.140625,-1.0625 -0.625,0 -1.109375,0.3125 -1.484375,0.765625 z m 0,0"
             id="id-92dbd8f6-bc7d-479e-9c2b-1d5370877abf" />
        </g>
      </g>
      <g
         fill="#000000"
         fill-opacity="1"
         id="id-64aa3a51-1829-43be-846d-8246094349d3"
         transform="translate(-149.212,-126.524)">
        <g
           transform="translate(205.099,131.149)"
           id="g13">
          <path
             d="m 5.1875,-1.578125 c 0.109375,0 0.28125,0 0.28125,-0.15625 0,-0.1875 -0.171875,-0.1875 -0.28125,-0.1875 H 1.03125 c -0.109375,0 -0.28125,0 -0.28125,0.171875 0,0.171875 0.15625,0.171875 0.28125,0.171875 z m 0,0"
             id="id-bafec8f5-0999-40dc-9bfb-729a6ea00336" />
        </g>
      </g>
      <g
         fill="#000000"
         fill-opacity="1"
         id="id-99ab0974-7657-4ca4-9d92-17776f6d5552"
         transform="translate(-149.212,-126.524)">
        <g
           transform="translate(211.326,131.149)"
           id="g14">
          <path
             d="m 2.328125,-4.4375 c 0,-0.1875 0,-0.1875 -0.203125,-0.1875 -0.453125,0.4375 -1.078125,0.4375 -1.359375,0.4375 v 0.25 c 0.15625,0 0.625,0 1,-0.1875 v 3.546875 c 0,0.234375 0,0.328125 -0.6875,0.328125 H 0.8125 V 0 c 0.125,0 0.984375,-0.03125 1.234375,-0.03125 0.21875,0 1.09375,0.03125 1.25,0.03125 V -0.25 H 3.03125 c -0.703125,0 -0.703125,-0.09375 -0.703125,-0.328125 z m 0,0"
             id="id-9a237686-0024-4a11-8739-1bfa2cc01fd0" />
        </g>
      </g>
      <g
         fill="#000000"
         fill-opacity="1"
         id="id-c75e2e61-fa2a-4891-b34c-2b128c62dcdb"
         transform="translate(-149.212,-126.524)">
        <g
           transform="translate(215.795,134.765)"
           id="g15">
          <path
             d="m 2.875,-2.5 c 0,-0.765625 -0.109375,-1.96875 -0.65625,-3.109375 -0.59375,-1.21875 -1.453125,-1.875 -1.546875,-1.875 -0.0625,0 -0.109375,0.046875 -0.109375,0.109375 0,0.03125 0,0.046875 0.1875,0.234375 0.984375,0.984375 1.546875,2.5625 1.546875,4.640625 0,1.71875 -0.359375,3.46875 -1.59375,4.71875 C 0.5625,2.34375 0.5625,2.359375 0.5625,2.390625 0.5625,2.453125 0.609375,2.5 0.671875,2.5 0.765625,2.5 1.671875,1.8125 2.25,0.546875 2.765625,-0.546875 2.875,-1.65625 2.875,-2.5 Z m 0,0"
             id="id-b21d4718-76ca-4976-aa3b-cc15adf8db67" />
        </g>
      </g>
      <g
         fill="#000000"
         fill-opacity="1"
         id="id-2def58eb-951c-41c5-a0ee-bbca24e297ef"
         transform="translate(-149.212,-126.524)">
        <g
           transform="translate(219.67,131.149)"
           id="g16">
          <path
             d="m 5.1875,-1.578125 c 0.109375,0 0.28125,0 0.28125,-0.15625 0,-0.1875 -0.171875,-0.1875 -0.28125,-0.1875 H 1.03125 c -0.109375,0 -0.28125,0 -0.28125,0.171875 0,0.171875 0.15625,0.171875 0.28125,0.171875 z m 0,0"
             id="id-4800d490-6aed-4194-adc1-f1ed30e146b3" />
        </g>
      </g>
      <g
         fill="#000000"
         fill-opacity="1"
         id="id-5abf8c69-9a07-447f-814c-62c684680cca"
         transform="translate(-149.212,-126.524)">
        <g
           transform="translate(225.896,131.149)"
           id="g17">
          <path
             d="m 2.328125,-4.4375 c 0,-0.1875 0,-0.1875 -0.203125,-0.1875 -0.453125,0.4375 -1.078125,0.4375 -1.359375,0.4375 v 0.25 c 0.15625,0 0.625,0 1,-0.1875 v 3.546875 c 0,0.234375 0,0.328125 -0.6875,0.328125 H 0.8125 V 0 c 0.125,0 0.984375,-0.03125 1.234375,-0.03125 0.21875,0 1.09375,0.03125 1.25,0.03125 V -0.25 H 3.03125 c -0.703125,0 -0.703125,-0.09375 -0.703125,-0.328125 z m 0,0"
             id="id-ac152ba3-42f4-4a20-b634-abee3f92b27d" />
        </g>
      </g>
    </g>
    <g
       transform="matrix(0.0705556,0,0,0.0705556,105.66422,112.17742)"
       ns8:version="1.10.2"
       ns8:texconverter="pdflatex"
       ns8:pdfconverter="inkscape"
       ns8:text="$\\cong_7$"
       ns8:preamble="/Users/abigailwatkins/Library/Application Support/org.inkscape.Inkscape/config/inkscape/extensions/textext/default_packages.tex"
       ns8:scale="0.2"
       ns8:alignment="middle center"
       ns8:stroke-to-path="0"
       ns8:inkscapeversion="1.4"
       ns8:jacobian_sqrt="0.0705556"
       id="g22">
      <defs
         id="id-2f1c15cf-af6e-4f40-a2bc-40fce98710ab">
        <g
           id="id-c1d30522-5edd-4721-a36c-1c995b5f817d">
          <g
             id="id-041db3dd-a567-4c60-9165-0b3846a8e4f9">
            <path
               d="m 7.203125,-3.328125 c 0,-0.21875 -0.0625,-0.328125 -0.140625,-0.328125 -0.046875,0 -0.140625,0.078125 -0.140625,0.265625 -0.046875,0.953125 -0.703125,1.5 -1.40625,1.5 -0.625,0 -1.09375,-0.421875 -1.59375,-0.84375 -0.5,-0.46875 -1.015625,-0.921875 -1.703125,-0.921875 -1.078125,0 -1.671875,1.09375 -1.671875,2 0,0.328125 0.125,0.328125 0.140625,0.328125 0.109375,0 0.140625,-0.203125 0.140625,-0.234375 0.046875,-1.09375 0.78125,-1.53125 1.390625,-1.53125 0.625,0 1.109375,0.421875 1.59375,0.84375 0.515625,0.46875 1.03125,0.921875 1.703125,0.921875 1.09375,0 1.6875,-1.09375 1.6875,-2 z m 0,0"
               id="id-26e884d9-e4f1-424a-81c6-664d82ebaed8" />
          </g>
          <g
             id="id-ac8c35ca-382d-4fb6-9786-3a591b4c0955">
            <path
               d="m 6.84375,-3.265625 c 0.15625,0 0.34375,0 0.34375,-0.1875 C 7.1875,-3.65625 7,-3.65625 6.859375,-3.65625 h -5.96875 c -0.140625,0 -0.328125,0 -0.328125,0.203125 0,0.1875 0.1875,0.1875 0.328125,0.1875 z m 0.015625,1.9375 c 0.140625,0 0.328125,0 0.328125,-0.203125 0,-0.1875 -0.1875,-0.1875 -0.34375,-0.1875 H 0.890625 c -0.140625,0 -0.328125,0 -0.328125,0.1875 0,0.203125 0.1875,0.203125 0.328125,0.203125 z m 0,0"
               id="id-f5b5e33e-f77e-4673-8f50-7282b63c2ef6" />
          </g>
          <g
             id="id-9f6a2016-0bd8-4d4f-8d90-12eca26fad63">
            <path
               d="m 3.734375,-4.203125 c 0.0625,-0.09375 0.0625,-0.109375 0.0625,-0.28125 H 1.96875 C 1.6875,-4.484375 1.609375,-4.5 1.359375,-4.515625 1,-4.546875 0.984375,-4.59375 0.96875,-4.703125 H 0.734375 l -0.25,1.484375 H 0.71875 c 0.015625,-0.109375 0.09375,-0.5625 0.203125,-0.640625 0.046875,-0.03125 0.625,-0.03125 0.71875,-0.03125 H 3.15625 c -0.21875,0.28125 -0.578125,0.71875 -0.71875,0.921875 -0.90625,1.1875 -1,2.296875 -1,2.703125 0,0.078125 0,0.40625 0.328125,0.40625 0.34375,0 0.34375,-0.3125 0.34375,-0.40625 v -0.28125 c 0,-1.34375 0.28125,-1.96875 0.578125,-2.34375 z m 0,0"
               id="id-1a6e9258-d3a6-42b4-90a1-d0f27df2ebf8" />
          </g>
        </g>
      </defs>
      <g
         fill="#000000"
         fill-opacity="1"
         id="id-d2daa990-8862-48a4-92eb-8673305f00bb"
         transform="translate(-149.259,-128.45)">
        <g
           transform="translate(148.712,132.106)"
           id="g19">
          <path
             d="m 7.203125,-3.328125 c 0,-0.21875 -0.0625,-0.328125 -0.140625,-0.328125 -0.046875,0 -0.140625,0.078125 -0.140625,0.265625 -0.046875,0.953125 -0.703125,1.5 -1.40625,1.5 -0.625,0 -1.09375,-0.421875 -1.59375,-0.84375 -0.5,-0.46875 -1.015625,-0.921875 -1.703125,-0.921875 -1.078125,0 -1.671875,1.09375 -1.671875,2 0,0.328125 0.125,0.328125 0.140625,0.328125 0.109375,0 0.140625,-0.203125 0.140625,-0.234375 0.046875,-1.09375 0.78125,-1.53125 1.390625,-1.53125 0.625,0 1.109375,0.421875 1.59375,0.84375 0.515625,0.46875 1.03125,0.921875 1.703125,0.921875 1.09375,0 1.6875,-1.09375 1.6875,-2 z m 0,0"
             id="id-cfc09a41-6692-44a3-ad99-85bb9570f823" />
        </g>
      </g>
      <g
         fill="#000000"
         fill-opacity="1"
         id="id-7f771e8b-4d0e-4ef8-9c4a-4ec8caa72374"
         transform="translate(-149.259,-128.45)">
        <g
           transform="translate(148.712,135.263)"
           id="g20">
          <path
             d="m 6.84375,-3.265625 c 0.15625,0 0.34375,0 0.34375,-0.1875 C 7.1875,-3.65625 7,-3.65625 6.859375,-3.65625 h -5.96875 c -0.140625,0 -0.328125,0 -0.328125,0.203125 0,0.1875 0.1875,0.1875 0.328125,0.1875 z m 0.015625,1.9375 c 0.140625,0 0.328125,0 0.328125,-0.203125 0,-0.1875 -0.1875,-0.1875 -0.34375,-0.1875 H 0.890625 c -0.140625,0 -0.328125,0 -0.328125,0.1875 0,0.203125 0.1875,0.203125 0.328125,0.203125 z m 0,0"
             id="id-0e88a9ec-840f-4150-b6f0-288c56336432" />
        </g>
      </g>
      <g
         fill="#000000"
         fill-opacity="1"
         id="id-6a746de9-0049-4fa1-9fd6-25417e986f39"
         transform="translate(-149.259,-128.45)">
        <g
           transform="translate(156.461,136.259)"
           id="g21">
          <path
             d="m 3.734375,-4.203125 c 0.0625,-0.09375 0.0625,-0.109375 0.0625,-0.28125 H 1.96875 C 1.6875,-4.484375 1.609375,-4.5 1.359375,-4.515625 1,-4.546875 0.984375,-4.59375 0.96875,-4.703125 H 0.734375 l -0.25,1.484375 H 0.71875 c 0.015625,-0.109375 0.09375,-0.5625 0.203125,-0.640625 0.046875,-0.03125 0.625,-0.03125 0.71875,-0.03125 H 3.15625 c -0.21875,0.28125 -0.578125,0.71875 -0.71875,0.921875 -0.90625,1.1875 -1,2.296875 -1,2.703125 0,0.078125 0,0.40625 0.328125,0.40625 0.34375,0 0.34375,-0.3125 0.34375,-0.40625 v -0.28125 c 0,-1.34375 0.28125,-1.96875 0.578125,-2.34375 z m 0,0"
             id="id-d5a16f0b-7444-43fe-8400-acd50fbe194e" />
        </g>
      </g>
    </g>
  </g>
  <g
     inkscape:groupmode="layer"
     id="layer2"
     inkscape:label="Layer 2" />
  <g
     transform="matrix(0.0705556,0,0,0.0705556,107.64792,112.17742)"
     ns8:version="1.10.2"
     ns8:texconverter="pdflatex"
     ns8:pdfconverter="inkscape"
     ns8:text="$\\cong_{10}$"
     ns8:preamble="/Users/abigailwatkins/Library/Application Support/org.inkscape.Inkscape/config/inkscape/extensions/textext/default_packages.tex"
     ns8:scale="0.2"
     ns8:alignment="middle center"
     ns8:stroke-to-path="0"
     ns8:inkscapeversion="1.4"
     ns8:jacobian_sqrt="0.0705556"
     id="g30">
    <defs
       id="id-64b50ad2-573b-452a-a583-669f2b14d669">
      <g
         id="id-87e01e4c-b64c-400c-adda-4adada8c5704">
        <g
           id="id-0b5e1bcb-09ab-4a7d-a1ef-f6ae411c201e">
          <path
             d="m 7.203125,-3.328125 c 0,-0.21875 -0.0625,-0.328125 -0.140625,-0.328125 -0.046875,0 -0.140625,0.078125 -0.140625,0.265625 -0.046875,0.953125 -0.703125,1.5 -1.40625,1.5 -0.625,0 -1.09375,-0.421875 -1.59375,-0.84375 -0.5,-0.46875 -1.015625,-0.921875 -1.703125,-0.921875 -1.078125,0 -1.671875,1.09375 -1.671875,2 0,0.328125 0.125,0.328125 0.140625,0.328125 0.109375,0 0.140625,-0.203125 0.140625,-0.234375 0.046875,-1.09375 0.78125,-1.53125 1.390625,-1.53125 0.625,0 1.109375,0.421875 1.59375,0.84375 0.515625,0.46875 1.03125,0.921875 1.703125,0.921875 1.09375,0 1.6875,-1.09375 1.6875,-2 z m 0,0"
             id="id-0aa4e989-ac48-4ea5-bc9b-ddf61a9d3894" />
        </g>
        <g
           id="id-1bbb4e0e-034a-47f5-9ea2-fc06efba0676">
          <path
             d="m 6.84375,-3.265625 c 0.15625,0 0.34375,0 0.34375,-0.1875 C 7.1875,-3.65625 7,-3.65625 6.859375,-3.65625 h -5.96875 c -0.140625,0 -0.328125,0 -0.328125,0.203125 0,0.1875 0.1875,0.1875 0.328125,0.1875 z m 0.015625,1.9375 c 0.140625,0 0.328125,0 0.328125,-0.203125 0,-0.1875 -0.1875,-0.1875 -0.34375,-0.1875 H 0.890625 c -0.140625,0 -0.328125,0 -0.328125,0.1875 0,0.203125 0.1875,0.203125 0.328125,0.203125 z m 0,0"
             id="id-852f7a22-1932-4431-b60e-83f1b3acb7e3" />
        </g>
        <g
           id="id-31e1f5b9-e55c-4951-8398-7d3eefaf4a19">
          <path
             d="m 2.328125,-4.4375 c 0,-0.1875 0,-0.1875 -0.203125,-0.1875 -0.453125,0.4375 -1.078125,0.4375 -1.359375,0.4375 v 0.25 c 0.15625,0 0.625,0 1,-0.1875 v 3.546875 c 0,0.234375 0,0.328125 -0.6875,0.328125 H 0.8125 V 0 c 0.125,0 0.984375,-0.03125 1.234375,-0.03125 0.21875,0 1.09375,0.03125 1.25,0.03125 V -0.25 H 3.03125 c -0.703125,0 -0.703125,-0.09375 -0.703125,-0.328125 z m 0,0"
             id="id-7a58a6cd-df8f-40dd-aa84-ed334a0feb56" />
        </g>
        <g
           id="id-a196412a-0693-40e4-a440-817de9c9a85d">
          <path
             d="M 3.59375,-2.21875 C 3.59375,-2.984375 3.5,-3.546875 3.1875,-4.03125 2.96875,-4.34375 2.53125,-4.625 1.984375,-4.625 c -1.625,0 -1.625,1.90625 -1.625,2.40625 0,0.5 0,2.359375 1.625,2.359375 1.609375,0 1.609375,-1.859375 1.609375,-2.359375 z M 1.984375,-0.0625 c -0.328125,0 -0.75,-0.1875 -0.890625,-0.75 C 1,-1.21875 1,-1.796875 1,-2.3125 1,-2.828125 1,-3.359375 1.09375,-3.734375 1.25,-4.28125 1.6875,-4.4375 1.984375,-4.4375 c 0.375,0 0.734375,0.234375 0.859375,0.640625 0.109375,0.375 0.125,0.875 0.125,1.484375 0,0.515625 0,1.03125 -0.09375,1.46875 -0.140625,0.640625 -0.609375,0.78125 -0.890625,0.78125 z m 0,0"
             id="id-017202b5-ba9b-4984-88ee-60c65cc83189" />
        </g>
      </g>
    </defs>
    <g
       fill="#000000"
       fill-opacity="1"
       id="id-67e009a8-21bc-41b1-b661-ef38727978c3"
       transform="translate(-149.259,-128.45)">
      <g
         transform="translate(148.712,132.106)"
         id="g26">
        <path
           d="m 7.203125,-3.328125 c 0,-0.21875 -0.0625,-0.328125 -0.140625,-0.328125 -0.046875,0 -0.140625,0.078125 -0.140625,0.265625 -0.046875,0.953125 -0.703125,1.5 -1.40625,1.5 -0.625,0 -1.09375,-0.421875 -1.59375,-0.84375 -0.5,-0.46875 -1.015625,-0.921875 -1.703125,-0.921875 -1.078125,0 -1.671875,1.09375 -1.671875,2 0,0.328125 0.125,0.328125 0.140625,0.328125 0.109375,0 0.140625,-0.203125 0.140625,-0.234375 0.046875,-1.09375 0.78125,-1.53125 1.390625,-1.53125 0.625,0 1.109375,0.421875 1.59375,0.84375 0.515625,0.46875 1.03125,0.921875 1.703125,0.921875 1.09375,0 1.6875,-1.09375 1.6875,-2 z m 0,0"
           id="id-ed9d3bb3-7364-44e8-a6f0-a91cac5de8fb" />
      </g>
    </g>
    <g
       fill="#000000"
       fill-opacity="1"
       id="id-e7456611-43e4-41a1-8586-189039058b13"
       transform="translate(-149.259,-128.45)">
      <g
         transform="translate(148.712,135.263)"
         id="g27">
        <path
           d="m 6.84375,-3.265625 c 0.15625,0 0.34375,0 0.34375,-0.1875 C 7.1875,-3.65625 7,-3.65625 6.859375,-3.65625 h -5.96875 c -0.140625,0 -0.328125,0 -0.328125,0.203125 0,0.1875 0.1875,0.1875 0.328125,0.1875 z m 0.015625,1.9375 c 0.140625,0 0.328125,0 0.328125,-0.203125 0,-0.1875 -0.1875,-0.1875 -0.34375,-0.1875 H 0.890625 c -0.140625,0 -0.328125,0 -0.328125,0.1875 0,0.203125 0.1875,0.203125 0.328125,0.203125 z m 0,0"
           id="id-99cc0e90-a291-438c-9939-0239fac4f0e0" />
      </g>
    </g>
    <g
       fill="#000000"
       fill-opacity="1"
       id="id-8ef6ccea-7060-4ce3-80f5-2b26fe3aff3e"
       transform="translate(-149.259,-128.45)">
      <g
         transform="translate(156.461,136.259)"
         id="g28">
        <path
           d="m 2.328125,-4.4375 c 0,-0.1875 0,-0.1875 -0.203125,-0.1875 -0.453125,0.4375 -1.078125,0.4375 -1.359375,0.4375 v 0.25 c 0.15625,0 0.625,0 1,-0.1875 v 3.546875 c 0,0.234375 0,0.328125 -0.6875,0.328125 H 0.8125 V 0 c 0.125,0 0.984375,-0.03125 1.234375,-0.03125 0.21875,0 1.09375,0.03125 1.25,0.03125 V -0.25 H 3.03125 c -0.703125,0 -0.703125,-0.09375 -0.703125,-0.328125 z m 0,0"
           id="id-8bd0bb48-cf8f-4b59-98c9-92411e372c2d" />
      </g>
      <g
         transform="translate(160.433,136.259)"
         id="g29">
        <path
           d="M 3.59375,-2.21875 C 3.59375,-2.984375 3.5,-3.546875 3.1875,-4.03125 2.96875,-4.34375 2.53125,-4.625 1.984375,-4.625 c -1.625,0 -1.625,1.90625 -1.625,2.40625 0,0.5 0,2.359375 1.625,2.359375 1.609375,0 1.609375,-1.859375 1.609375,-2.359375 z M 1.984375,-0.0625 c -0.328125,0 -0.75,-0.1875 -0.890625,-0.75 C 1,-1.21875 1,-1.796875 1,-2.3125 1,-2.828125 1,-3.359375 1.09375,-3.734375 1.25,-4.28125 1.6875,-4.4375 1.984375,-4.4375 c 0.375,0 0.734375,0.234375 0.859375,0.640625 0.109375,0.375 0.125,0.875 0.125,1.484375 0,0.515625 0,1.03125 -0.09375,1.46875 -0.140625,0.640625 -0.609375,0.78125 -0.890625,0.78125 z m 0,0"
           id="id-2b7cacf5-f33c-469f-a2e8-1f6aef585204" />
      </g>
    </g>
  </g>
</svg>
